<?xml version="1.0" encoding="UTF-8"?>
<svg width="687" height="784" fill="none" stroke-linecap="square" stroke-miterlimit="10" version="1.1" viewBox="0 15.5 343.5 392" xmlns="http://www.w3.org/2000/svg">
  <clipPath id="a">
    <path d="m0 0h960v540h-960z"/>
  </clipPath>
  <g clip-path="url(#a)">
    <g fill-rule="evenodd">
      <path d="m0 0h960v540h-960z" fill="#fff"/>
      <path d="m16.6 308.1h247.5v22.93h-247.5z" fill="#fff2cc"/>
      <path d="m16.6 308.1h247.5v22.93h-247.5z" stroke="#595959" stroke-linecap="butt" stroke-linejoin="round"/>
      <path d="m18.83 34.35h34.52v17.17h-34.52z" fill="#cfe2f3"/>
      <path d="m18.83 34.35h34.52v17.17h-34.52z" stroke="#595959" stroke-linecap="butt" stroke-linejoin="round"/>
    </g>
    <path d="m31.57 41.31q0.5625 0 0.8906 0.2812 0.3438 0.2656 0.4844 0.7656 0.1562 0.4844 0.1562 1.141 0 0.6406-0.1875 1.141-0.1719 0.5-0.5312 0.7812t-0.9062 0.2812q-0.7031 0-1.125-0.4844v2l-0.6719 0.09375v-5.922h0.5781l0.0625 0.5938q0.2188-0.3281 0.5469-0.5t0.7031-0.1719zm-0.1562 0.5312q-0.3438 0-0.625 0.2188-0.2656 0.2031-0.4375 0.4688v2.078q0.1719 0.25 0.4219 0.3906t0.5469 0.1406q0.5312 0 0.7812-0.3906 0.2656-0.4062 0.2656-1.25 0-0.5469-0.1094-0.9062-0.09375-0.375-0.3125-0.5625-0.2031-0.1875-0.5312-0.1875zm6.409 3.547q-0.2031 0.1562-0.5156 0.2344-0.3125 0.07813-0.6094 0.07813-0.6719 0-1.047-0.3594-0.3594-0.3594-0.3594-0.9219v-2.5h-0.9688v-0.5312h0.9688v-0.9531l0.6719-0.07813v1.031h1.453l-0.07813 0.5312h-1.375v2.5q0 0.3438 0.1719 0.5312 0.1875 0.1875 0.625 0.1875 0.2344 0 0.4375-0.04687 0.2031-0.0625 0.375-0.1562zm1.503 0.2188v-0.5156h0.6562v-3.188h-0.6562v-0.5156h1.172l0.125 1q0.2344-0.5156 0.5781-0.7969 0.3594-0.2812 0.9219-0.2812 0.1875 0 0.3125 0.03125 0.1406 0.01563 0.2969 0.04687l-0.2031 0.6094q-0.125-0.03125-0.2344-0.04687-0.1094-0.03125-0.25-0.03125-0.4844 0-0.8438 0.3438-0.3438 0.3438-0.5469 1.047v1.781h0.8594v0.5156zm2.75-2.781v-0.9219l0.0625-0.5156h0.5938l-0.1094 1.438z" fill="#434343"/>
    <g fill-rule="evenodd">
      <path d="m16.37 72.88h282.2v22.93h-282.2z" fill="#fff2cc"/>
      <path d="m16.37 72.88h282.2v22.93h-282.2z" stroke="#595959" stroke-linecap="butt" stroke-linejoin="round"/>
      <path d="m19.36 75.76h17.26v17.17h-17.26z" fill="#f4cccc"/>
      <path d="m19.36 75.76h17.26v17.17h-17.26z" stroke="#595959" stroke-linecap="butt" stroke-linejoin="round"/>
    </g>
    <path d="m28.33 82.11v4.906h-0.6875v-4.906h-1.734v-0.6094h4.156l-0.0625 0.6094z" fill="#434343"/>
    <path d="m36.63 75.76h17.26v17.17h-17.26z" fill="#f4cccc" fill-rule="evenodd"/>
    <path d="m36.63 75.76h17.26v17.17h-17.26z" fill-rule="evenodd" stroke="#595959" stroke-linecap="butt" stroke-linejoin="round"/>
    <path d="m45.59 82.11v4.906h-0.6875v-4.906h-1.734v-0.6094h4.156l-0.0625 0.6094z" fill="#434343"/>
    <path d="m53.89 75.76h17.26v17.17h-17.26z" fill="#f4cccc" fill-rule="evenodd"/>
    <path d="m53.89 75.76h17.26v17.17h-17.26z" fill-rule="evenodd" stroke="#595959" stroke-linecap="butt" stroke-linejoin="round"/>
    <path d="m62.85 82.11v4.906h-0.6875v-4.906h-1.734v-0.6094h4.156l-0.0625 0.6094z" fill="#434343"/>
    <path d="m71.15 75.76h17.26v17.17h-17.26z" fill="#f4cccc" fill-rule="evenodd"/>
    <path d="m71.15 75.76h17.26v17.17h-17.26z" fill-rule="evenodd" stroke="#595959" stroke-linecap="butt" stroke-linejoin="round"/>
    <path d="m80.12 82.11v4.906h-0.6875v-4.906h-1.734v-0.6094h4.156l-0.0625 0.6094z" fill="#434343"/>
    <path d="m88.41 75.76h17.26v17.17h-17.26z" fill="#f4cccc" fill-rule="evenodd"/>
    <path d="m88.41 75.76h17.26v17.17h-17.26z" fill-rule="evenodd" stroke="#595959" stroke-linecap="butt" stroke-linejoin="round"/>
    <path d="m97.38 82.11v4.906h-0.6875v-4.906h-1.734v-0.6094h4.156l-0.0625 0.6094z" fill="#434343"/>
    <path d="m105.7 75.76h17.26v17.17h-17.26z" fill="#f4cccc" fill-rule="evenodd"/>
    <path d="m105.7 75.76h17.26v17.17h-17.26z" fill-rule="evenodd" stroke="#595959" stroke-linecap="butt" stroke-linejoin="round"/>
    <path d="m114.6 82.11v4.906h-0.6875v-4.906h-1.734v-0.6094h4.156l-0.0625 0.6094z" fill="#434343"/>
    <path d="m122.9 75.76h17.26v17.17h-17.26z" fill="#f4cccc" fill-rule="evenodd"/>
    <path d="m122.9 75.76h17.26v17.17h-17.26z" fill-rule="evenodd" stroke="#595959" stroke-linecap="butt" stroke-linejoin="round"/>
    <path d="m131.9 82.11v4.906h-0.6875v-4.906h-1.734v-0.6094h4.156l-0.0625 0.6094z" fill="#434343"/>
    <path d="m140.2 75.76h17.26v17.17h-17.26z" fill="#f4cccc" fill-rule="evenodd"/>
    <path d="m140.2 75.76h17.26v17.17h-17.26z" fill-rule="evenodd" stroke="#595959" stroke-linecap="butt" stroke-linejoin="round"/>
    <path d="m149.2 82.11v4.906h-0.6875v-4.906h-1.734v-0.6094h4.156l-0.0625 0.6094z" fill="#434343"/>
    <path d="m53.35 34.35h34.52v17.17h-34.52z" fill="#d9ead3" fill-rule="evenodd"/>
    <path d="m53.35 34.35h34.52v17.17h-34.52z" fill-rule="evenodd" stroke="#595959" stroke-linecap="butt" stroke-linejoin="round"/>
    <path d="m66.12 45.13q0.3281 0 0.5938-0.1094 0.2812-0.1094 0.5-0.2656l0.3281 0.4375q-0.2656 0.2344-0.6562 0.375t-0.7656 0.1406q-0.625 0-1.062-0.2656-0.4375-0.2812-0.6719-0.7656t-0.2344-1.156q0-0.625 0.2344-1.125t0.6719-0.7812q0.4375-0.2969 1.078-0.2969 0.4062 0 0.75 0.125 0.3594 0.1094 0.6562 0.3594l-0.3281 0.4531q-0.2656-0.1875-0.5469-0.2812-0.2656-0.09375-0.5469-0.09375-0.5469 0-0.9062 0.4062-0.3438 0.4062-0.3438 1.234 0 0.5625 0.1562 0.9219 0.1719 0.3594 0.4531 0.5312 0.2812 0.1562 0.6406 0.1562zm5.909-0.4375q0 0.25 0.07813 0.375 0.09375 0.1094 0.2656 0.1719l-0.1562 0.4688q-0.2656-0.03125-0.4844-0.1719-0.2031-0.1406-0.2812-0.4219-0.2344 0.2969-0.5781 0.4531-0.3438 0.1406-0.75 0.1406-0.625 0-1-0.3594-0.3594-0.3594-0.3594-0.9375 0-0.6562 0.5-1 0.5156-0.3594 1.484-0.3594h0.6094v-0.3438q0-0.4531-0.2656-0.6406-0.2656-0.2031-0.7344-0.2031-0.2031 0-0.4844 0.0625-0.2812 0.04687-0.6094 0.1562l-0.1719-0.5q0.375-0.1562 0.7188-0.2031 0.3438-0.0625 0.6562-0.0625 0.7812 0 1.172 0.375 0.3906 0.3594 0.3906 0.9844zm-1.734 0.5q0.3125 0 0.5938-0.1562t0.4688-0.4375v-1.078h-0.6094q-0.6875 0-0.9844 0.2344-0.2812 0.2344-0.2812 0.6406 0 0.3906 0.2031 0.5938t0.6094 0.2031zm5.409-3.875q0.5625 0 0.8906 0.2812 0.3438 0.2656 0.4844 0.7656 0.1562 0.4844 0.1562 1.141 0 0.6406-0.1875 1.141-0.1719 0.5-0.5312 0.7812t-0.9062 0.2812q-0.7031 0-1.125-0.4844v2l-0.6719 0.09375v-5.922h0.5781l0.0625 0.5938q0.2188-0.3281 0.5469-0.5t0.7031-0.1719zm-0.1562 0.5312q-0.3438 0-0.625 0.2188-0.2656 0.2031-0.4375 0.4688v2.078q0.1719 0.25 0.4219 0.3906t0.5469 0.1406q0.5312 0 0.7812-0.3906 0.2656-0.4062 0.2656-1.25 0-0.5469-0.1094-0.9062-0.09375-0.375-0.3125-0.5625-0.2031-0.1875-0.5312-0.1875z" fill="#434343"/>
    <path d="m87.25 34.35h34.52v17.17h-34.52z" fill="#d9ead3" fill-rule="evenodd"/>
    <path d="m87.25 34.35h34.52v17.17h-34.52z" fill-rule="evenodd" stroke="#595959" stroke-linecap="butt" stroke-linejoin="round"/>
    <path d="m99.75 39.71v4.859q0 0.3125 0.1875 0.4531 0.2031 0.125 0.5156 0.125 0.1875 0 0.3594-0.03125 0.1719-0.04687 0.3438-0.1094l0.1875 0.4844q-0.1719 0.07813-0.4375 0.1406-0.25 0.07813-0.5625 0.07813-0.5625 0-0.9219-0.3125-0.3438-0.3125-0.3438-0.8594v-4.297h-1.281v-0.5312zm3.691 4.031q0.0312 0.5 0.1875 0.8125 0.1719 0.2969 0.4375 0.4531 0.2812 0.1406 0.6094 0.1406 0.3281 0 0.5781-0.09375 0.2656-0.09375 0.5469-0.2812l0.3125 0.4375q-0.2969 0.2344-0.6719 0.375-0.375 0.125-0.7656 0.125-0.625 0-1.062-0.2656-0.4219-0.2812-0.6562-0.7812-0.2188-0.5-0.2188-1.141t0.2188-1.141q0.2344-0.5 0.6406-0.7812 0.4219-0.2812 0.9844-0.2812 0.5312 0 0.9062 0.25 0.3906 0.25 0.5938 0.7188 0.2188 0.4531 0.2188 1.094 0 0.1094-0.0156 0.2031 0 0.09375-0.0156 0.1562zm1.141-1.875q-0.4531 0-0.7812 0.3438-0.3125 0.3281-0.3438 1.016h2.188q-0.0156-0.6719-0.2969-1.016-0.2812-0.3438-0.7656-0.3438zm3.128 3.75v-4.219h0.5781l0.0469 0.5938q0.2656-0.3281 0.6406-0.5 0.3906-0.1719 0.75-0.1719 0.625 0 0.9062 0.3281t0.2812 0.9062v3.062h-0.6719v-2.562q0-0.4375-0.0469-0.7031t-0.2031-0.375q-0.1406-0.125-0.4688-0.125-0.25 0-0.4688 0.1094-0.2188 0.09375-0.3906 0.2656-0.1562 0.1562-0.2812 0.3281v3.062z" fill="#434343"/>
    <path d="m19.44 152.6h34.52v17.17h-34.52z" fill="#d9ead3" fill-rule="evenodd"/>
    <path d="m19.44 152.6h34.52v17.17h-34.52z" fill-rule="evenodd" stroke="#595959" stroke-linecap="butt" stroke-linejoin="round"/>
    <path d="m31.94 158v4.859q0 0.3125 0.1875 0.4531 0.2031 0.125 0.5156 0.125 0.1875 0 0.3594-0.0312 0.1719-0.0469 0.3438-0.1094l0.1875 0.4844q-0.1719 0.0781-0.4375 0.1406-0.25 0.0781-0.5625 0.0781-0.5625 0-0.9219-0.3125-0.3438-0.3125-0.3438-0.8594v-4.297h-1.281v-0.5312zm3.691 4.031q0.03125 0.5 0.1875 0.8125 0.1719 0.2969 0.4375 0.4531 0.2812 0.1406 0.6094 0.1406t0.5781-0.0937q0.2656-0.0937 0.5469-0.2812l0.3125 0.4375q-0.2969 0.2344-0.6719 0.375-0.375 0.125-0.7656 0.125-0.625 0-1.062-0.2656-0.4219-0.2812-0.6562-0.7812-0.2188-0.5-0.2188-1.141 0-0.6406 0.2188-1.141 0.2344-0.5 0.6406-0.7812 0.4219-0.2812 0.9844-0.2812 0.5312 0 0.9062 0.25 0.3906 0.25 0.5938 0.7188 0.2188 0.4531 0.2188 1.094 0 0.1094-0.01563 0.2031 0 0.0937-0.01563 0.1562zm1.141-1.875q-0.4531 0-0.7812 0.3438-0.3125 0.3281-0.3438 1.016h2.188q-0.01563-0.6719-0.2969-1.016-0.2812-0.3438-0.7656-0.3438zm3.128 3.75v-4.219h0.5781l0.04687 0.5938q0.2656-0.3281 0.6406-0.5 0.3906-0.1719 0.75-0.1719 0.625 0 0.9062 0.3281 0.2812 0.3281 0.2812 0.9062v3.062h-0.6719v-2.562q0-0.4375-0.04687-0.7031-0.04687-0.2656-0.2031-0.375-0.1406-0.125-0.4688-0.125-0.25 0-0.4688 0.1094-0.2188 0.0937-0.3906 0.2656-0.1562 0.1562-0.2812 0.3281v3.062z" fill="#434343"/>
    <g fill-rule="evenodd">
      <path d="m202.8 152.6h-10.66v17.19h10.83l5.21-8.677z" fill="#cfe2f3"/>
      <path d="m202.8 152.6h-10.66v17.19h10.83l5.21-8.677z" stroke="#595959" stroke-linecap="butt" stroke-linejoin="round"/>
      <path d="m210.5 169.8 16.19 0.0131-0.063-17.13-16.31-0.0131 5.375 8.625z" fill="#cfe2f3"/>
      <path d="m210.5 169.8 16.19 0.0131-0.063-17.13-16.31-0.0131 5.375 8.625z" stroke="#595959" stroke-linecap="butt" stroke-linejoin="round"/>
      <path d="m226.7 152.6h34.52v17.17h-34.52z" fill="#cfe2f3"/>
      <path d="m226.7 152.6h34.52v17.17h-34.52z" stroke="#595959" stroke-linecap="butt" stroke-linejoin="round"/>
    </g>
    <path d="m239.4 159.6q0.5625 0 0.8906 0.2812 0.3438 0.2656 0.4844 0.7656 0.1562 0.4844 0.1562 1.141 0 0.6406-0.1875 1.141-0.1719 0.5-0.5312 0.7812-0.3594 0.2812-0.9062 0.2812-0.7031 0-1.125-0.4844v2l-0.6719 0.0937v-5.922h0.5781l0.0625 0.5938q0.2188-0.3281 0.5469-0.5 0.3281-0.1719 0.7031-0.1719zm-0.1562 0.5312q-0.3438 0-0.625 0.2188-0.2656 0.2031-0.4375 0.4688v2.078q0.1719 0.25 0.4219 0.3906 0.25 0.1406 0.5469 0.1406 0.5312 0 0.7812-0.3906 0.2656-0.4062 0.2656-1.25 0-0.5469-0.1094-0.9062-0.0937-0.375-0.3125-0.5625-0.2031-0.1875-0.5312-0.1875zm6.409 3.547q-0.2031 0.1562-0.5156 0.2344-0.3125 0.0781-0.6094 0.0781-0.6719 0-1.047-0.3594-0.3594-0.3594-0.3594-0.9219v-2.5h-0.9688v-0.5312h0.9688v-0.9531l0.6719-0.0781v1.031h1.453l-0.0781 0.5312h-1.375v2.5q0 0.3438 0.1719 0.5312 0.1875 0.1875 0.625 0.1875 0.2344 0 0.4375-0.0469 0.2031-0.0625 0.375-0.1562zm1.503 0.2188v-0.5156h0.6562v-3.188h-0.6562v-0.5156h1.172l0.125 1q0.2344-0.5156 0.5781-0.7969 0.3594-0.2812 0.9219-0.2812 0.1875 0 0.3125 0.0312 0.1406 0.0156 0.2969 0.0469l-0.2031 0.6094q-0.125-0.0312-0.2344-0.0469-0.1094-0.0312-0.25-0.0312-0.4844 0-0.8438 0.3438-0.3438 0.3438-0.5469 1.047v1.781h0.8594v0.5156zm2.75-2.781v-0.9219l0.0625-0.5156h0.5938l-0.1094 1.438z" fill="#999"/>
    <path d="m251.4 152.6h9.764v17.2h-9.764z" fill="#000" fill-opacity="0" fill-rule="evenodd"/>
    <path d="m255.2 164.8q0.3438 0 0.5938 0.125 0.25 0.125 0.3906 0.3438 0.1406 0.2031 0.1406 0.4531 0 0.2188-0.1094 0.4062-0.0937 0.1719-0.2656 0.2969-0.1562 0.1094-0.3438 0.1562 0.2188 0.0156 0.4062 0.125 0.1875 0.0937 0.2969 0.2969 0.125 0.1875 0.125 0.4688 0 0.3281-0.1562 0.5781t-0.4531 0.4062q-0.2812 0.1406-0.6562 0.1406-0.3125 0-0.625-0.1094-0.2969-0.125-0.5-0.375l0.2969-0.25q0.1562 0.1875 0.375 0.2812 0.2188 0.0781 0.4375 0.0781 0.3906 0 0.5938-0.2031 0.2187-0.2031 0.2187-0.5469 0-0.25-0.1094-0.4062-0.0937-0.1562-0.2656-0.2188-0.1562-0.0625-0.375-0.0625h-0.3125l0.0469-0.3594h0.2188q0.1875 0 0.3438-0.0625 0.1562-0.0781 0.25-0.2188 0.1094-0.1406 0.1094-0.3594 0-0.2969-0.2031-0.4531-0.2031-0.1719-0.4844-0.1719-0.25 0-0.4375 0.0937-0.1719 0.0781-0.3438 0.25l-0.25-0.2812q0.2344-0.2188 0.5-0.3125 0.2656-0.1094 0.5469-0.1094zm3.744 0.0625v3.562h-0.4375v-3.078l-0.8438 0.5156-0.2031-0.3125 1.094-0.6875zm0.7656 3.312v0.3594h-2.109v-0.3594z" fill="#999"/>
    <path d="m19.44 135.4h69.04v19.4h-69.04z" fill="#000" fill-opacity="0" fill-rule="evenodd"/>
    <path d="m27.74 145.6q0 0.4844-0.25 0.8594-0.2344 0.3594-0.6875 0.5625-0.4375 0.2031-1.078 0.2031-0.6094 0-1.094-0.1875t-0.8438-0.5156l0.4219-0.4688q0.2812 0.2656 0.6562 0.4375 0.375 0.1562 0.875 0.1562 0.3281 0 0.625-0.1094 0.2969-0.125 0.4688-0.3438 0.1875-0.2188 0.1875-0.5781 0-0.2656-0.1094-0.4531t-0.375-0.3281q-0.25-0.1562-0.7344-0.2969-0.5469-0.1562-0.9375-0.3594-0.3906-0.2031-0.6094-0.5-0.2188-0.2969-0.2188-0.7344 0-0.4062 0.2188-0.7188 0.2344-0.3281 0.625-0.5 0.4062-0.1875 0.9375-0.1875 0.5625 0 0.9844 0.1719 0.4219 0.1562 0.7656 0.4531l-0.4062 0.4531q-0.2969-0.2656-0.6406-0.375-0.3281-0.125-0.6875-0.125-0.2969 0-0.5469 0.0937-0.25 0.0781-0.4062 0.2656-0.1406 0.1719-0.1406 0.4531 0 0.2344 0.125 0.4062 0.125 0.1719 0.4219 0.3125 0.3125 0.1406 0.8438 0.2969 0.4219 0.125 0.7812 0.3125 0.375 0.1875 0.5938 0.5156 0.2344 0.3125 0.2344 0.8281zm4.644 1.312q-0.2031 0.1562-0.5156 0.2344-0.3125 0.0781-0.6094 0.0781-0.6719 0-1.047-0.3594-0.3594-0.3594-0.3594-0.9219v-2.5h-0.9688v-0.5312h0.9688v-0.9531l0.6719-0.0781v1.031h1.453l-0.07813 0.5312h-1.375v2.5q0 0.3438 0.1719 0.5312 0.1875 0.1875 0.625 0.1875 0.2344 0 0.4375-0.0469 0.2031-0.0625 0.375-0.1562zm1.987-1.656q0.03125 0.5 0.1875 0.8125 0.1719 0.2969 0.4375 0.4531 0.2812 0.1406 0.6094 0.1406t0.5781-0.0937q0.2656-0.0937 0.5469-0.2812l0.3125 0.4375q-0.2969 0.2344-0.6719 0.375-0.375 0.125-0.7656 0.125-0.625 0-1.062-0.2656-0.4219-0.2812-0.6562-0.7812-0.2188-0.5-0.2188-1.141 0-0.6406 0.2188-1.141 0.2344-0.5 0.6406-0.7812 0.4219-0.2812 0.9844-0.2812 0.5312 0 0.9062 0.25 0.3906 0.25 0.5938 0.7188 0.2188 0.4531 0.2188 1.094 0 0.1094-0.01563 0.2031 0 0.0937-0.01563 0.1562zm1.141-1.875q-0.4531 0-0.7812 0.3438-0.3125 0.3281-0.3438 1.016h2.188q-0.01563-0.6719-0.2969-1.016-0.2812-0.3438-0.7656-0.3438zm6.144 2.828q0 0.25 0.07813 0.375 0.09375 0.1094 0.2656 0.1719l-0.1562 0.4688q-0.2656-0.0312-0.4844-0.1719-0.2031-0.1406-0.2812-0.4219-0.2344 0.2969-0.5781 0.4531-0.3438 0.1406-0.75 0.1406-0.625 0-1-0.3594-0.3594-0.3594-0.3594-0.9375 0-0.6562 0.5-1 0.5156-0.3594 1.484-0.3594h0.6094v-0.3438q0-0.4531-0.2656-0.6406-0.2656-0.2031-0.7344-0.2031-0.2031 0-0.4844 0.0625-0.2812 0.0469-0.6094 0.1562l-0.1719-0.5q0.375-0.1562 0.7188-0.2031 0.3438-0.0625 0.6562-0.0625 0.7812 0 1.172 0.375 0.3906 0.3594 0.3906 0.9844zm-1.734 0.5q0.3125 0 0.5938-0.1562t0.4688-0.4375v-1.078h-0.6094q-0.6875 0-0.9844 0.2344-0.2812 0.2344-0.2812 0.6406 0 0.3906 0.2031 0.5938 0.2031 0.2031 0.6094 0.2031zm6.05-5.562 0.6719 0.0781v5.906h-0.5938l-0.0625-0.5625q-0.2344 0.3438-0.5469 0.5-0.2969 0.1562-0.6562 0.1562-0.5469 0-0.9062-0.2656-0.3438-0.2812-0.5156-0.7812t-0.1719-1.141q0-0.6406 0.1875-1.141 0.2031-0.5 0.5625-0.7812 0.375-0.2812 0.9062-0.2812 0.3594 0 0.625 0.125 0.2812 0.125 0.5 0.375zm-0.9531 2.219q-0.5312 0-0.8125 0.4219-0.2812 0.4062-0.2812 1.25 0 0.5312 0.1094 0.9062 0.125 0.375 0.3438 0.5625 0.2188 0.1719 0.5469 0.1719 0.3594 0 0.6094-0.2031 0.2656-0.2031 0.4375-0.4531v-2.109q-0.1719-0.25-0.4219-0.3906-0.25-0.1562-0.5312-0.1562zm6.737-0.4531-1.484 4.25q-0.1406 0.4219-0.375 0.7812-0.2188 0.3594-0.5938 0.5938-0.3594 0.2344-0.9062 0.2812l-0.1094-0.5312q0.4375-0.0781 0.6875-0.2344 0.25-0.1406 0.3906-0.375 0.1562-0.2188 0.2656-0.5469h-0.2188l-1.484-4.219h0.7344l1.203 3.703 1.188-3.703zm2.909 3.438 1.484-4.734h0.7031l-1.844 5.516h-0.7188l-1.844-5.516h0.7344zm3.706-1.094q0.03125 0.5 0.1875 0.8125 0.1719 0.2969 0.4375 0.4531 0.2812 0.1406 0.6094 0.1406t0.5781-0.0937q0.2656-0.0937 0.5469-0.2812l0.3125 0.4375q-0.2969 0.2344-0.6719 0.375-0.375 0.125-0.7656 0.125-0.625 0-1.062-0.2656-0.4219-0.2812-0.6562-0.7812-0.2188-0.5-0.2188-1.141 0-0.6406 0.2188-1.141 0.2344-0.5 0.6406-0.7812 0.4219-0.2812 0.9844-0.2812 0.5312 0 0.9062 0.25 0.3906 0.25 0.5938 0.7188 0.2188 0.4531 0.2188 1.094 0 0.1094-0.01563 0.2031 0 0.0937-0.01563 0.1562zm1.141-1.875q-0.4531 0-0.7812 0.3438-0.3125 0.3281-0.3438 1.016h2.188q-0.01563-0.6719-0.2969-1.016-0.2812-0.3438-0.7656-0.3438zm5.034 3.266q0.3281 0 0.5938-0.1094 0.2812-0.1094 0.5-0.2656l0.3281 0.4375q-0.2656 0.2344-0.6562 0.375-0.3906 0.1406-0.7656 0.1406-0.625 0-1.063-0.2656-0.4375-0.2812-0.6719-0.7656-0.2344-0.4844-0.2344-1.156 0-0.625 0.2344-1.125t0.6719-0.7812q0.4375-0.2969 1.078-0.2969 0.4062 0 0.75 0.125 0.3594 0.1094 0.6562 0.3594l-0.3281 0.4531q-0.2656-0.1875-0.5469-0.2812-0.2656-0.0937-0.5469-0.0937-0.5469 0-0.9063 0.4062-0.3438 0.4062-0.3438 1.234 0 0.5625 0.1562 0.9219 0.1719 0.3594 0.4531 0.5312 0.2813 0.1562 0.6406 0.1562zm5.878-4.266 0.3281 0.5156-2.828 1.734 2.828 1.75-0.3594 0.4844-3.047-1.891v-0.7031zm3.753-0.1562v4.906h-0.6875v-4.906h-1.734v-0.6094h4.156l-0.0625 0.6094zm3.097 0.1562 3.078 1.891v0.7031l-3.047 1.891-0.3594-0.5 2.828-1.734-2.828-1.75z" fill="#595959"/>
    <path d="m18.76 17.17h69.04v19.4h-69.04z" fill="#000" fill-opacity="0" fill-rule="evenodd"/>
    <path d="m25.18 28.07 1.484-4.734h0.7031l-1.844 5.516h-0.7188l-1.844-5.516h0.7344zm3.706-1.094q0.03125 0.5 0.1875 0.8125 0.1719 0.2969 0.4375 0.4531 0.2812 0.1406 0.6094 0.1406t0.5781-0.09375q0.2656-0.09375 0.5469-0.2812l0.3125 0.4375q-0.2969 0.2344-0.6719 0.375-0.375 0.125-0.7656 0.125-0.625 0-1.062-0.2656-0.4219-0.2812-0.6562-0.7812-0.2188-0.5-0.2188-1.141t0.2188-1.141q0.2344-0.5 0.6406-0.7812 0.4219-0.2812 0.9844-0.2812 0.5312 0 0.9062 0.25 0.3906 0.25 0.5938 0.7188 0.2188 0.4531 0.2188 1.094 0 0.1094-0.01563 0.2031 0 0.09375-0.01563 0.1562zm1.141-1.875q-0.4531 0-0.7812 0.3438-0.3125 0.3281-0.3438 1.016h2.188q-0.01563-0.6719-0.2969-1.016-0.2812-0.3438-0.7656-0.3438zm5.034 3.266q0.3281 0 0.5938-0.1094 0.2812-0.1094 0.5-0.2656l0.3281 0.4375q-0.2656 0.2344-0.6562 0.375t-0.7656 0.1406q-0.625 0-1.062-0.2656-0.4375-0.2812-0.6719-0.7656t-0.2344-1.156q0-0.625 0.2344-1.125t0.6719-0.7812q0.4375-0.2969 1.078-0.2969 0.4062 0 0.75 0.125 0.3594 0.1094 0.6562 0.3594l-0.3281 0.4531q-0.2656-0.1875-0.5469-0.2812-0.2656-0.09375-0.5469-0.09375-0.5469 0-0.9062 0.4062-0.3438 0.4062-0.3438 1.234 0 0.5625 0.1562 0.9219 0.1719 0.3594 0.4531 0.5312 0.2812 0.1562 0.6406 0.1562zm5.878-4.266 0.3281 0.5156-2.828 1.734 2.828 1.75-0.3594 0.4844-3.047-1.891v-0.7031zm3.753-0.1562v4.906h-0.6875v-4.906h-1.734v-0.6094h4.156l-0.0625 0.6094zm3.097 0.1562 3.078 1.891v0.7031l-3.047 1.891-0.3594-0.5 2.828-1.734-2.828-1.75z" fill="#595959"/>
    <g fill-rule="evenodd">
      <path d="m16.37 191.2h40.66v22.94h-40.66z" fill="#fff2cc"/>
      <path d="m16.37 191.2h40.66v22.94h-40.66z" stroke="#595959" stroke-linecap="butt" stroke-linejoin="round"/>
      <path d="m19.43 194h17.26v17.18h-17.26z" fill="#f4cccc"/>
      <path d="m19.43 194h17.26v17.18h-17.26z" stroke="#595959" stroke-linecap="butt" stroke-linejoin="round"/>
    </g>
    <path d="m28.4 200.4v4.906h-0.6875v-4.906h-1.734v-0.6094h4.156l-0.0625 0.6094z" fill="#434343"/>
    <path d="m36.69 194h17.26v17.18h-17.26z" fill="#f4cccc" fill-rule="evenodd"/>
    <path d="m36.69 194h17.26v17.18h-17.26z" fill-rule="evenodd" stroke="#595959" stroke-linecap="butt" stroke-linejoin="round"/>
    <path d="m45.66 200.4v4.906h-0.6875v-4.906h-1.734v-0.6094h4.156l-0.0625 0.6094z" fill="#434343"/>
    <g fill-rule="evenodd">
      <path d="m104.4 191.2h75.04v22.94h-75.04z" fill="#fff2cc"/>
      <path d="m104.4 191.2h75.04v22.94h-75.04z" stroke="#595959" stroke-linecap="butt" stroke-linejoin="round"/>
      <path d="m107.5 194h17.26v17.18h-17.26z" fill="#f4cccc"/>
      <path d="m107.5 194h17.26v17.18h-17.26z" stroke="#595959" stroke-linecap="butt" stroke-linejoin="round"/>
    </g>
    <path d="m116.5 200.4v4.906h-0.6875v-4.906h-1.734v-0.6094h4.156l-0.0625 0.6094z" fill="#434343"/>
    <path d="m124.8 194h17.26v17.18h-17.26z" fill="#f4cccc" fill-rule="evenodd"/>
    <path d="m124.8 194h17.26v17.18h-17.26z" fill-rule="evenodd" stroke="#595959" stroke-linecap="butt" stroke-linejoin="round"/>
    <path d="m133.7 200.4v4.906h-0.6875v-4.906h-1.734v-0.6094h4.156l-0.0625 0.6094z" fill="#434343"/>
    <path d="m142 194h17.26v17.18h-17.26z" fill="#f4cccc" fill-rule="evenodd"/>
    <path d="m142 194h17.26v17.18h-17.26z" fill-rule="evenodd" stroke="#595959" stroke-linecap="butt" stroke-linejoin="round"/>
    <path d="m151 200.4v4.906h-0.6875v-4.906h-1.734v-0.6094h4.156l-0.0625 0.6094z" fill="#434343"/>
    <path d="m159.3 194h17.26v17.18h-17.26z" fill="#f4cccc" fill-rule="evenodd"/>
    <path d="m159.3 194h17.26v17.18h-17.26z" fill-rule="evenodd" stroke="#595959" stroke-linecap="butt" stroke-linejoin="round"/>
    <path d="m168.3 200.4v4.906h-0.6875v-4.906h-1.734v-0.6094h4.156l-0.0625 0.6094z" fill="#434343"/>
    <g fill-rule="evenodd">
      <path d="m182.9 191.2h144v22.94h-144z" fill="#fff2cc"/>
      <path d="m182.9 191.2h144v22.94h-144z" stroke="#595959" stroke-linecap="butt" stroke-linejoin="round"/>
      <path d="m185.8 194h17.26v17.18h-17.26z" fill="#f4cccc"/>
      <path d="m185.8 194h17.26v17.18h-17.26z" stroke="#595959" stroke-linecap="butt" stroke-linejoin="round"/>
    </g>
    <path d="m194.8 200.4v4.906h-0.6875v-4.906h-1.734v-0.6094h4.156l-0.0625 0.6094z" fill="#434343"/>
    <path d="m203.1 194h17.26v17.18h-17.26z" fill="#f4cccc" fill-rule="evenodd"/>
    <path d="m203.1 194h17.26v17.18h-17.26z" fill-rule="evenodd" stroke="#595959" stroke-linecap="butt" stroke-linejoin="round"/>
    <path d="m212.1 200.4v4.906h-0.6875v-4.906h-1.734v-0.6094h4.156l-0.0625 0.6094z" fill="#434343"/>
    <path d="m220.4 194h17.26v17.18h-17.26z" fill="#f4cccc" fill-rule="evenodd"/>
    <path d="m220.4 194h17.26v17.18h-17.26z" fill-rule="evenodd" stroke="#595959" stroke-linecap="butt" stroke-linejoin="round"/>
    <path d="m229.3 200.4v4.906h-0.6875v-4.906h-1.734v-0.6094h4.156l-0.0625 0.6094z" fill="#434343"/>
    <g fill-rule="evenodd">
      <path d="m237.6 194h17.26v17.18h-17.26z" fill="#fff"/>
      <path d="m237.6 194h17.26v17.18h-17.26z" stroke="#595959" stroke-linecap="butt" stroke-linejoin="round"/>
      <path d="m254.9 194h17.26v17.18h-17.26z" fill="#fff"/>
      <path d="m254.9 194h17.26v17.18h-17.26z" stroke="#595959" stroke-linecap="butt" stroke-linejoin="round"/>
      <path d="m272.2 194h17.26v17.18h-17.26z" fill="#fff"/>
      <path d="m272.2 194h17.26v17.18h-17.26z" stroke="#595959" stroke-linecap="butt" stroke-linejoin="round"/>
      <path d="m289.4 194h17.26v17.18h-17.26z" fill="#fff"/>
      <path d="m289.4 194h17.26v17.18h-17.26z" stroke="#595959" stroke-linecap="butt" stroke-linejoin="round"/>
      <path d="m306.7 194h17.26v17.18h-17.26z" fill="#fff"/>
      <path d="m306.7 194h17.26v17.18h-17.26z" stroke="#595959" stroke-linecap="butt" stroke-linejoin="round"/>
      <path d="m71.21 169.8-42.9 21.42" fill="#000" fill-opacity="0"/>
      <path d="m71.21 169.8-40.69 20.31" stroke="#595959" stroke-linecap="butt" stroke-linejoin="round"/>
      <path d="m30.53 190.1 0.2592-0.7762-1.164 1.228 1.681-0.1924z" fill="#595959" stroke="#595959" stroke-linecap="butt"/>
      <path d="m237 216.2c0 3.105-2.517 5.622-5.622 5.622h-97.56c-3.105 0-5.622 2.517-5.622 5.622 0-3.105-2.517-5.622-5.622-5.622h-97.56c-3.105 0-5.622-2.517-5.622-5.622z" fill="#000" fill-opacity="0"/>
      <path d="m237 216.2c0 3.105-2.517 5.622-5.622 5.622h-97.56c-3.105 0-5.622 2.517-5.622 5.622 0-3.105-2.517-5.622-5.622-5.622h-97.56c-3.105 0-5.622-2.517-5.622-5.622" fill="#000" fill-opacity="0"/>
      <path d="m237 216.2c0 3.105-2.517 5.622-5.622 5.622h-97.56c-3.105 0-5.622 2.517-5.622 5.622 0-3.105-2.517-5.622-5.622-5.622h-97.56c-3.105 0-5.622-2.517-5.622-5.622" stroke="#595959" stroke-linecap="butt" stroke-linejoin="round"/>
      <path d="m98.36 212.3h41.07v29.07h-41.07z" fill="#000" fill-opacity="0"/>
    </g>
    <path d="m107.9 229v-5.734h0.7031v5.734zm4.637-1.344 0.7188 0.0937q-0.1719 0.6406-0.6406 1-0.4531 0.3438-1.188 0.3438-0.9062 0-1.438-0.5625t-0.5312-1.578q0-1.047 0.5312-1.625 0.5469-0.5781 1.406-0.5781 0.8281 0 1.359 0.5781 0.5312 0.5625 0.5312 1.594 0 0.0625-0.0156 0.1875h-3.094q0.0469 0.6719 0.3906 1.047 0.3438 0.3594 0.875 0.3594 0.375 0 0.6406-0.2031 0.2812-0.2031 0.4531-0.6562zm-2.312-1.125h2.312q-0.0469-0.5312-0.2656-0.7969-0.3281-0.4062-0.875-0.4062-0.4844 0-0.8125 0.3281-0.3281 0.3281-0.3594 0.875zm3.918 2.469v-4.156h0.625v0.5938q0.4688-0.6875 1.328-0.6875 0.375 0 0.6875 0.1406 0.3125 0.1406 0.4688 0.3594t0.2188 0.5156q0.0469 0.1875 0.0469 0.6875v2.547h-0.7031v-2.531q0-0.4219-0.0937-0.625-0.0781-0.2188-0.2969-0.3438-0.2031-0.1406-0.4844-0.1406-0.4375 0-0.7656 0.2969-0.3281 0.2812-0.3281 1.078v2.266z" fill="#595959"/>
    <g fill-rule="evenodd">
      <path d="m323.9 225.2c0 3.105-2.517 5.622-5.622 5.622h-140.9c-3.105 0-5.622 2.517-5.622 5.622 0-3.105-2.517-5.622-5.622-5.622h-140.9c-3.105 0-5.622-2.517-5.622-5.622z" fill="#000" fill-opacity="0"/>
      <path d="m323.9 225.2c0 3.105-2.517 5.622-5.622 5.622h-140.9c-3.105 0-5.622 2.517-5.622 5.622 0-3.105-2.517-5.622-5.622-5.622h-140.9c-3.105 0-5.622-2.517-5.622-5.622" fill="#000" fill-opacity="0"/>
      <path d="m323.9 225.2c0 3.105-2.517 5.622-5.622 5.622h-140.9c-3.105 0-5.622 2.517-5.622 5.622 0-3.105-2.517-5.622-5.622-5.622h-140.9c-3.105 0-5.622-2.517-5.622-5.622" stroke="#595959" stroke-linecap="butt" stroke-linejoin="round"/>
      <path d="m141 221.4h38.48v29.07h-38.48z" fill="#000" fill-opacity="0"/>
    </g>
    <path d="m153.2 236.5 0.6875 0.0781q-0.1094 0.7188-0.5781 1.125t-1.141 0.4062q-0.8594 0-1.375-0.5469-0.5156-0.5625-0.5156-1.609 0-0.6719 0.2188-1.172 0.2344-0.5 0.6875-0.75 0.4531-0.2656 0.9844-0.2656 0.6719 0 1.094 0.3438 0.4375 0.3438 0.5625 0.9688l-0.6875 0.1094q-0.0937-0.4219-0.3438-0.625-0.25-0.2188-0.5938-0.2188-0.5312 0-0.875 0.3906-0.3281 0.375-0.3281 1.203 0 0.8281 0.3125 1.219 0.3281 0.375 0.8438 0.375 0.4219 0 0.6875-0.25 0.2812-0.2656 0.3594-0.7812zm4 1q-0.3906 0.3281-0.75 0.4688-0.3594 0.1406-0.7812 0.1406-0.6719 0-1.047-0.3281-0.3594-0.3438-0.3594-0.8594 0-0.3125 0.125-0.5625 0.1406-0.25 0.3594-0.3906 0.2344-0.1562 0.5156-0.2344 0.2031-0.0625 0.625-0.1094 0.8594-0.1094 1.25-0.25 0.0156-0.1406 0.0156-0.1719 0-0.4375-0.2031-0.6094-0.2656-0.2344-0.7969-0.2344-0.5 0-0.7344 0.1719-0.2344 0.1719-0.3594 0.6094l-0.6875-0.0937q0.0937-0.4375 0.3125-0.7031 0.2188-0.2812 0.625-0.4219 0.4062-0.1562 0.9375-0.1562t0.8594 0.125q0.3438 0.125 0.5 0.3281 0.1562 0.1875 0.2188 0.4688 0.0312 0.1875 0.0312 0.6562v0.9375q0 0.9688 0.0469 1.234 0.0469 0.2656 0.1719 0.5h-0.7344q-0.1094-0.2188-0.1406-0.5156zm-0.0625-1.562q-0.375 0.1562-1.141 0.2656-0.4375 0.0625-0.625 0.1406-0.1719 0.0781-0.2656 0.2344-0.0937 0.1406-0.0937 0.3281 0 0.2812 0.2031 0.4688 0.2188 0.1875 0.625 0.1875t0.7188-0.1719q0.3281-0.1875 0.4688-0.5 0.1094-0.2344 0.1094-0.7031zm1.809 3.672v-5.75h0.6406v0.5469q0.2188-0.3125 0.5-0.4688 0.2969-0.1719 0.7031-0.1719 0.5312 0 0.9375 0.2812 0.4062 0.2656 0.6094 0.7656 0.2031 0.5 0.2031 1.094 0 0.6406-0.2344 1.156-0.2188 0.5-0.6562 0.7812-0.4375 0.2656-0.9062 0.2656-0.3594 0-0.6406-0.1406-0.2812-0.1562-0.4531-0.3906v2.031zm0.6406-3.641q0 0.7969 0.3125 1.188 0.3281 0.375 0.7969 0.375t0.7969-0.3906q0.3281-0.4062 0.3281-1.234 0-0.7969-0.3281-1.188-0.3125-0.3906-0.7656-0.3906-0.4531 0-0.7969 0.4219-0.3438 0.4062-0.3438 1.219z" fill="#595959"/>
    <g fill-rule="evenodd">
      <path d="m60.41 191.2h40.66v22.94h-40.66z" fill="#fff2cc"/>
      <path d="m60.41 191.2h40.66v22.94h-40.66z" stroke="#595959" stroke-linecap="butt" stroke-linejoin="round"/>
      <path d="m63.46 194h17.26v17.18h-17.26z" fill="#f4cccc"/>
      <path d="m63.46 194h17.26v17.18h-17.26z" stroke="#595959" stroke-linecap="butt" stroke-linejoin="round"/>
    </g>
    <path d="m72.43 200.4v4.906h-0.6875v-4.906h-1.734v-0.6094h4.156l-0.0625 0.6094z" fill="#434343"/>
    <path d="m80.73 194h17.26v17.18h-17.26z" fill="#f4cccc" fill-rule="evenodd"/>
    <path d="m80.73 194h17.26v17.18h-17.26z" fill-rule="evenodd" stroke="#595959" stroke-linecap="butt" stroke-linejoin="round"/>
    <path d="m89.69 200.4v4.906h-0.6875v-4.906h-1.734v-0.6094h4.156l-0.0625 0.6094z" fill="#434343"/>
    <g fill-rule="evenodd">
      <path d="m105.7 169.8-33.64 21.42" fill="#000" fill-opacity="0"/>
      <path d="m105.7 169.8-31.55 20.09" stroke="#595959" stroke-linecap="butt" stroke-linejoin="round"/>
      <path d="m74.18 189.9 0.1773-0.7989-1.03 1.342 1.652-0.3657z" fill="#595959" stroke="#595959" stroke-linecap="butt"/>
      <path d="m140.3 169.8-23.94 21.57" fill="#000" fill-opacity="0"/>
      <path d="m140.3 169.8-22.1 19.92" stroke="#595959" stroke-linecap="butt" stroke-linejoin="round"/>
      <path d="m118.2 189.7 0.0424-0.8172-0.7935 1.494 1.568-0.6345z" fill="#595959" stroke="#595959" stroke-linecap="butt"/>
      <path d="m53.96 152.6h34.52v17.17h-34.52z" fill="#cfe2f3"/>
      <path d="m53.96 152.6h34.52v17.17h-34.52z" stroke="#595959" stroke-linecap="butt" stroke-linejoin="round"/>
    </g>
    <path d="m66.71 159.6q0.5625 0 0.8906 0.2812 0.3438 0.2656 0.4844 0.7656 0.1562 0.4844 0.1562 1.141 0 0.6406-0.1875 1.141-0.1719 0.5-0.5312 0.7812t-0.9062 0.2812q-0.7031 0-1.125-0.4844v2l-0.6719 0.0937v-5.922h0.5781l0.0625 0.5938q0.2188-0.3281 0.5469-0.5 0.3281-0.1719 0.7031-0.1719zm-0.1562 0.5312q-0.3438 0-0.625 0.2188-0.2656 0.2031-0.4375 0.4688v2.078q0.1719 0.25 0.4219 0.3906 0.25 0.1406 0.5469 0.1406 0.5312 0 0.7812-0.3906 0.2656-0.4062 0.2656-1.25 0-0.5469-0.1094-0.9062-0.09375-0.375-0.3125-0.5625-0.2031-0.1875-0.5312-0.1875zm6.409 3.547q-0.2031 0.1562-0.5156 0.2344-0.3125 0.0781-0.6094 0.0781-0.6719 0-1.047-0.3594-0.3594-0.3594-0.3594-0.9219v-2.5h-0.9688v-0.5312h0.9688v-0.9531l0.6719-0.0781v1.031h1.453l-0.07813 0.5312h-1.375v2.5q0 0.3438 0.1719 0.5312 0.1875 0.1875 0.625 0.1875 0.2344 0 0.4375-0.0469 0.2031-0.0625 0.375-0.1562zm1.503 0.2188v-0.5156h0.6562v-3.188h-0.6562v-0.5156h1.172l0.125 1q0.2344-0.5156 0.5781-0.7969 0.3594-0.2812 0.9219-0.2812 0.1875 0 0.3125 0.0312 0.1406 0.0156 0.2969 0.0469l-0.2031 0.6094q-0.125-0.0312-0.2344-0.0469-0.1094-0.0312-0.25-0.0312-0.4844 0-0.8438 0.3438-0.3438 0.3438-0.5469 1.047v1.781h0.8594v0.5156zm2.75-2.781v-0.9219l0.0625-0.5156h0.5938l-0.1094 1.438z" fill="#434343"/>
    <path d="m78.73 152.6h9.764v17.2h-9.764z" fill="#000" fill-opacity="0" fill-rule="evenodd"/>
    <path d="m85.89 164.8q0.5938 0 0.8906 0.5 0.3125 0.4844 0.3125 1.406 0 0.9062-0.3125 1.406-0.2969 0.4844-0.8906 0.4844t-0.9062-0.4844q-0.2969-0.5-0.2969-1.406 0-0.9219 0.2969-1.406 0.3125-0.5 0.9062-0.5zm0 0.3594q-0.3281 0-0.5312 0.3594-0.1875 0.3594-0.1875 1.188 0 0.4062 0.03125 0.7031 0.04687 0.2812 0.1406 0.4688 0.09375 0.1875 0.2188 0.2812 0.1406 0.0781 0.3281 0.0781 0.2344 0 0.3906-0.1562 0.1719-0.1562 0.25-0.5 0.09375-0.3438 0.09375-0.875 0-0.5625-0.07813-0.8906-0.07813-0.3438-0.2344-0.5-0.1562-0.1562-0.4219-0.1562zm0.5469 0.1406 0.1094 0.3906-1.156 2.359-0.1719-0.3125z" fill="#999"/>
    <path d="m88.49 152.6h34.52v17.17h-34.52z" fill="#cfe2f3" fill-rule="evenodd"/>
    <path d="m88.49 152.6h34.52v17.17h-34.52z" fill-rule="evenodd" stroke="#595959" stroke-linecap="butt" stroke-linejoin="round"/>
    <path d="m101.2 159.6q0.5625 0 0.8906 0.2812 0.3438 0.2656 0.4844 0.7656 0.1562 0.4844 0.1562 1.141 0 0.6406-0.1875 1.141-0.1719 0.5-0.5312 0.7812-0.3594 0.2812-0.9062 0.2812-0.7031 0-1.125-0.4844v2l-0.6719 0.0937v-5.922h0.5781l0.0625 0.5938q0.2187-0.3281 0.5469-0.5 0.3281-0.1719 0.7031-0.1719zm-0.1562 0.5312q-0.3438 0-0.625 0.2188-0.2656 0.2031-0.4375 0.4688v2.078q0.1719 0.25 0.4219 0.3906 0.25 0.1406 0.5469 0.1406 0.5312 0 0.7812-0.3906 0.2656-0.4062 0.2656-1.25 0-0.5469-0.1094-0.9062-0.0937-0.375-0.3125-0.5625-0.2031-0.1875-0.5312-0.1875zm6.409 3.547q-0.2031 0.1562-0.5156 0.2344-0.3125 0.0781-0.6094 0.0781-0.6719 0-1.047-0.3594-0.3594-0.3594-0.3594-0.9219v-2.5h-0.9688v-0.5312h0.9688v-0.9531l0.6719-0.0781v1.031h1.453l-0.0781 0.5312h-1.375v2.5q0 0.3438 0.1719 0.5312 0.1875 0.1875 0.625 0.1875 0.2344 0 0.4375-0.0469 0.2031-0.0625 0.375-0.1562zm1.503 0.2188v-0.5156h0.6562v-3.188h-0.6562v-0.5156h1.172l0.125 1q0.2344-0.5156 0.5781-0.7969 0.3594-0.2812 0.9219-0.2812 0.1875 0 0.3125 0.0312 0.1406 0.0156 0.2969 0.0469l-0.2031 0.6094q-0.125-0.0312-0.2344-0.0469-0.1094-0.0312-0.25-0.0312-0.4844 0-0.8438 0.3438-0.3438 0.3438-0.5469 1.047v1.781h0.8594v0.5156zm2.75-2.781v-0.9219l0.0625-0.5156h0.5938l-0.1094 1.438z" fill="#434343"/>
    <path d="m113.3 152.6h9.764v17.2h-9.764z" fill="#000" fill-opacity="0" fill-rule="evenodd"/>
    <path d="m120.8 164.9v3.562h-0.4375v-3.078l-0.8438 0.5156-0.2031-0.3125 1.094-0.6875zm0.7656 3.312v0.3594h-2.109v-0.3594z" fill="#999"/>
    <path d="m123 152.6h34.52v17.17h-34.52z" fill="#cfe2f3" fill-rule="evenodd"/>
    <path d="m123 152.6h34.52v17.17h-34.52z" fill-rule="evenodd" stroke="#595959" stroke-linecap="butt" stroke-linejoin="round"/>
    <path d="m135.8 159.6q0.5625 0 0.8906 0.2812 0.3438 0.2656 0.4844 0.7656 0.1562 0.4844 0.1562 1.141 0 0.6406-0.1875 1.141-0.1719 0.5-0.5312 0.7812-0.3594 0.2812-0.9062 0.2812-0.7031 0-1.125-0.4844v2l-0.6719 0.0937v-5.922h0.5781l0.0625 0.5938q0.2188-0.3281 0.5469-0.5 0.3281-0.1719 0.7031-0.1719zm-0.1562 0.5312q-0.3438 0-0.625 0.2188-0.2656 0.2031-0.4375 0.4688v2.078q0.1719 0.25 0.4219 0.3906 0.25 0.1406 0.5469 0.1406 0.5312 0 0.7812-0.3906 0.2656-0.4062 0.2656-1.25 0-0.5469-0.1094-0.9062-0.0937-0.375-0.3125-0.5625-0.2031-0.1875-0.5312-0.1875zm6.409 3.547q-0.2031 0.1562-0.5156 0.2344-0.3125 0.0781-0.6094 0.0781-0.6719 0-1.047-0.3594-0.3594-0.3594-0.3594-0.9219v-2.5h-0.9688v-0.5312h0.9688v-0.9531l0.6719-0.0781v1.031h1.453l-0.0781 0.5312h-1.375v2.5q0 0.3438 0.1719 0.5312 0.1875 0.1875 0.625 0.1875 0.2344 0 0.4375-0.0469 0.2031-0.0625 0.375-0.1562zm1.503 0.2188v-0.5156h0.6562v-3.188h-0.6562v-0.5156h1.172l0.125 1q0.2344-0.5156 0.5781-0.7969 0.3594-0.2812 0.9219-0.2812 0.1875 0 0.3125 0.0312 0.1406 0.0156 0.2969 0.0469l-0.2031 0.6094q-0.125-0.0312-0.2344-0.0469-0.1094-0.0312-0.25-0.0312-0.4844 0-0.8438 0.3438-0.3438 0.3438-0.5469 1.047v1.781h0.8594v0.5156zm2.75-2.781v-0.9219l0.0625-0.5156h0.5938l-0.1094 1.438z" fill="#434343"/>
    <path d="m147.8 152.6h9.764v17.2h-9.764z" fill="#000" fill-opacity="0" fill-rule="evenodd"/>
    <path d="m154.8 164.8q0.3438 0 0.5938 0.1406 0.25 0.1406 0.375 0.375 0.1406 0.2188 0.1406 0.5156 0 0.25-0.0937 0.5-0.0937 0.2344-0.2812 0.5-0.1875 0.2656-0.5 0.5938-0.3125 0.3125-0.7812 0.7344h1.734l-0.0469 0.375h-2.188v-0.3594q0.4062-0.4062 0.7031-0.7031 0.2969-0.2969 0.4844-0.5156 0.1875-0.2344 0.2969-0.4062 0.1094-0.1875 0.1406-0.3594 0.0469-0.1719 0.0469-0.3438 0-0.3125-0.1719-0.4844-0.1719-0.1875-0.4688-0.1875-0.2812 0-0.4531 0.0937-0.1719 0.0937-0.3438 0.2969l-0.3125-0.2344q0.2188-0.2656 0.4844-0.3906 0.2656-0.1406 0.6406-0.1406z" fill="#999"/>
    <path d="m157.6 152.6h34.52v17.17h-34.52z" fill="#cfe2f3" fill-rule="evenodd"/>
    <path d="m157.6 152.6h34.52v17.17h-34.52z" fill-rule="evenodd" stroke="#595959" stroke-linecap="butt" stroke-linejoin="round"/>
    <path d="m170.3 159.6q0.5625 0 0.8906 0.2812 0.3438 0.2656 0.4844 0.7656 0.1562 0.4844 0.1562 1.141 0 0.6406-0.1875 1.141-0.1719 0.5-0.5312 0.7812-0.3594 0.2812-0.9062 0.2812-0.7031 0-1.125-0.4844v2l-0.6719 0.0937v-5.922h0.5781l0.0625 0.5938q0.2188-0.3281 0.5469-0.5 0.3281-0.1719 0.7031-0.1719zm-0.1562 0.5312q-0.3438 0-0.625 0.2188-0.2656 0.2031-0.4375 0.4688v2.078q0.1719 0.25 0.4219 0.3906 0.25 0.1406 0.5469 0.1406 0.5312 0 0.7812-0.3906 0.2656-0.4062 0.2656-1.25 0-0.5469-0.1094-0.9062-0.0937-0.375-0.3125-0.5625-0.2031-0.1875-0.5312-0.1875zm6.409 3.547q-0.2031 0.1562-0.5156 0.2344-0.3125 0.0781-0.6094 0.0781-0.6719 0-1.047-0.3594-0.3594-0.3594-0.3594-0.9219v-2.5h-0.9688v-0.5312h0.9688v-0.9531l0.6719-0.0781v1.031h1.453l-0.0781 0.5312h-1.375v2.5q0 0.3438 0.1719 0.5312 0.1875 0.1875 0.625 0.1875 0.2344 0 0.4375-0.0469 0.2031-0.0625 0.375-0.1562zm1.503 0.2188v-0.5156h0.6562v-3.188h-0.6562v-0.5156h1.172l0.125 1q0.2344-0.5156 0.5781-0.7969 0.3594-0.2812 0.9219-0.2812 0.1875 0 0.3125 0.0312 0.1406 0.0156 0.2969 0.0469l-0.2031 0.6094q-0.125-0.0312-0.2344-0.0469-0.1094-0.0312-0.25-0.0312-0.4844 0-0.8438 0.3438-0.3438 0.3438-0.5469 1.047v1.781h0.8594v0.5156zm2.75-2.781v-0.9219l0.0625-0.5156h0.5938l-0.1094 1.438z" fill="#434343"/>
    <path d="m182.3 152.6h9.764v17.2h-9.764z" fill="#000" fill-opacity="0" fill-rule="evenodd"/>
    <path d="m189.3 164.8q0.3438 0 0.5938 0.125t0.3906 0.3438q0.1406 0.2031 0.1406 0.4531 0 0.2188-0.1094 0.4062-0.0937 0.1719-0.2656 0.2969-0.1562 0.1094-0.3438 0.1562 0.2188 0.0156 0.4062 0.125 0.1875 0.0937 0.2969 0.2969 0.125 0.1875 0.125 0.4688 0 0.3281-0.1562 0.5781t-0.4531 0.4062q-0.2812 0.1406-0.6562 0.1406-0.3125 0-0.625-0.1094-0.2969-0.125-0.5-0.375l0.2969-0.25q0.1562 0.1875 0.375 0.2812 0.2188 0.0781 0.4375 0.0781 0.3906 0 0.5938-0.2031 0.2188-0.2031 0.2188-0.5469 0-0.25-0.1094-0.4062-0.0937-0.1562-0.2656-0.2188-0.1562-0.0625-0.375-0.0625h-0.3125l0.0469-0.3594h0.2188q0.1875 0 0.3438-0.0625 0.1562-0.0781 0.25-0.2188 0.1094-0.1406 0.1094-0.3594 0-0.2969-0.2031-0.4531-0.2031-0.1719-0.4844-0.1719-0.25 0-0.4375 0.0937-0.1719 0.0781-0.3438 0.25l-0.25-0.2812q0.2344-0.2188 0.5-0.3125 0.2656-0.1094 0.5469-0.1094z" fill="#999"/>
    <g fill-rule="evenodd">
      <path d="m174.8 169.8 19.31 21.29" fill="#000" fill-opacity="0"/>
      <path d="m174.8 169.8 17.65 19.46" stroke="#595959" stroke-linecap="butt" stroke-linejoin="round"/>
      <path d="m192.5 189.3-0.8173-0.04 1.497 0.789-0.6393-1.566z" fill="#595959" stroke="#595959" stroke-linecap="butt"/>
      <path d="m157.5 75.76h17.26v17.17h-17.26z" fill="#f4cccc"/>
      <path d="m157.5 75.76h17.26v17.17h-17.26z" stroke="#595959" stroke-linecap="butt" stroke-linejoin="round"/>
    </g>
    <path d="m166.4 82.12v4.906h-0.6875v-4.906h-1.734v-0.6094h4.156l-0.0625 0.6094z" fill="#434343"/>
    <path d="m174.7 75.76h17.26v17.17h-17.26z" fill="#f4cccc" fill-rule="evenodd"/>
    <path d="m174.7 75.76h17.26v17.17h-17.26z" fill-rule="evenodd" stroke="#595959" stroke-linecap="butt" stroke-linejoin="round"/>
    <path d="m183.7 82.12v4.906h-0.6875v-4.906h-1.734v-0.6094h4.156l-0.0625 0.6094z" fill="#434343"/>
    <path d="m192 75.76h17.26v17.17h-17.26z" fill="#f4cccc" fill-rule="evenodd"/>
    <path d="m192 75.76h17.26v17.17h-17.26z" fill-rule="evenodd" stroke="#595959" stroke-linecap="butt" stroke-linejoin="round"/>
    <path d="m201 82.12v4.906h-0.6875v-4.906h-1.734v-0.6094h4.156l-0.0625 0.6094z" fill="#434343"/>
    <g fill-rule="evenodd">
      <path d="m209.3 75.76h17.26v17.17h-17.26z" fill="#fff"/>
      <path d="m209.3 75.76h17.26v17.17h-17.26z" stroke="#595959" stroke-linecap="butt" stroke-linejoin="round"/>
      <path d="m226.5 75.76h17.26v17.17h-17.26z" fill="#fff"/>
      <path d="m226.5 75.76h17.26v17.17h-17.26z" stroke="#595959" stroke-linecap="butt" stroke-linejoin="round"/>
      <path d="m243.8 75.76h17.26v17.17h-17.26z" fill="#fff"/>
      <path d="m243.8 75.76h17.26v17.17h-17.26z" stroke="#595959" stroke-linecap="butt" stroke-linejoin="round"/>
      <path d="m261 75.76h17.26v17.17h-17.26z" fill="#fff"/>
      <path d="m261 75.76h17.26v17.17h-17.26z" stroke="#595959" stroke-linecap="butt" stroke-linejoin="round"/>
      <path d="m278.3 75.76h17.26v17.17h-17.26z" fill="#fff"/>
      <path d="m278.3 75.76h17.26v17.17h-17.26z" stroke="#595959" stroke-linecap="butt" stroke-linejoin="round"/>
      <path d="m209.3 97.9c0 3.105-2.517 5.622-5.622 5.622h-83.7c-3.105 0-5.622 2.517-5.622 5.622 0-3.105-2.517-5.622-5.622-5.622h-83.7c-3.105 0-5.622-2.517-5.622-5.622z" fill="#000" fill-opacity="0"/>
      <path d="m209.3 97.9c0 3.105-2.517 5.622-5.622 5.622h-83.7c-3.105 0-5.622 2.517-5.622 5.622 0-3.105-2.517-5.622-5.622-5.622h-83.7c-3.105 0-5.622-2.517-5.622-5.622" fill="#000" fill-opacity="0"/>
      <path d="m209.3 97.9c0 3.105-2.517 5.622-5.622 5.622h-83.7c-3.105 0-5.622 2.517-5.622 5.622 0-3.105-2.517-5.622-5.622-5.622h-83.7c-3.105 0-5.622-2.517-5.622-5.622" stroke="#595959" stroke-linecap="butt" stroke-linejoin="round"/>
      <path d="m88.24 94.06h35.84v29.07h-35.84z" fill="#000" fill-opacity="0"/>
    </g>
    <path d="m97.75 110.7v-5.734h0.7031v5.734zm4.637-1.344 0.7188 0.0937q-0.1719 0.6406-0.6406 1-0.4531 0.3438-1.188 0.3438-0.9062 0-1.437-0.5625-0.5312-0.5625-0.5312-1.578 0-1.047 0.5312-1.625 0.5469-0.5781 1.406-0.5781 0.8281 0 1.359 0.5781 0.5312 0.5625 0.5312 1.594 0 0.0625-0.0156 0.1875h-3.094q0.0469 0.6719 0.3906 1.047 0.3438 0.3594 0.875 0.3594 0.375 0 0.6406-0.2031 0.2812-0.2031 0.4531-0.6562zm-2.312-1.125h2.312q-0.0469-0.5312-0.2656-0.7969-0.3281-0.4062-0.875-0.4062-0.4844 0-0.8125 0.3281-0.3281 0.3281-0.3594 0.875zm3.918 2.469v-4.156h0.625v0.5938q0.4688-0.6875 1.328-0.6875 0.375 0 0.6875 0.1406 0.3125 0.1406 0.4688 0.3594t0.2188 0.5156q0.0469 0.1875 0.0469 0.6875v2.547h-0.7031v-2.531q0-0.4219-0.0937-0.625-0.0781-0.2188-0.2969-0.3438-0.2031-0.1406-0.4844-0.1406-0.4375 0-0.7656 0.2969-0.3281 0.2812-0.3281 1.078v2.266z" fill="#595959"/>
    <g fill-rule="evenodd">
      <path d="m295.5 106.9c0 3.105-2.517 5.622-5.622 5.622h-126.7c-3.105 0-5.622 2.517-5.622 5.622 0-3.105-2.517-5.622-5.622-5.622h-126.7c-3.105 0-5.622-2.517-5.622-5.622z" fill="#000" fill-opacity="0"/>
      <path d="m295.5 106.9c0 3.105-2.517 5.622-5.622 5.622h-126.7c-3.105 0-5.622 2.517-5.622 5.622 0-3.105-2.517-5.622-5.622-5.622h-126.7c-3.105 0-5.622-2.517-5.622-5.622" fill="#000" fill-opacity="0"/>
      <path d="m295.5 106.9c0 3.105-2.517 5.622-5.622 5.622h-126.7c-3.105 0-5.622 2.517-5.622 5.622 0-3.105-2.517-5.622-5.622-5.622h-126.7c-3.105 0-5.622-2.517-5.622-5.622" stroke="#595959" stroke-linecap="butt" stroke-linejoin="round"/>
      <path d="m129.6 103.1h34.9v29.07h-34.9z" fill="#000" fill-opacity="0"/>
    </g>
    <path d="m141.8 118.3 0.6875 0.0781q-0.1094 0.7188-0.5781 1.125t-1.141 0.4062q-0.8594 0-1.375-0.5469-0.5156-0.5625-0.5156-1.609 0-0.6719 0.2188-1.172 0.2344-0.5 0.6875-0.75 0.4531-0.2656 0.9844-0.2656 0.6719 0 1.094 0.3438 0.4375 0.3438 0.5625 0.9688l-0.6875 0.1094q-0.0937-0.4219-0.3438-0.625-0.25-0.2188-0.5938-0.2188-0.5312 0-0.875 0.3906-0.3281 0.375-0.3281 1.203 0 0.8281 0.3125 1.219 0.3281 0.375 0.8438 0.375 0.4219 0 0.6875-0.25 0.2812-0.2656 0.3594-0.7812zm4 1q-0.3906 0.3281-0.75 0.4688-0.3594 0.1406-0.7812 0.1406-0.6719 0-1.047-0.3281-0.3594-0.3438-0.3594-0.8594 0-0.3125 0.125-0.5625 0.1406-0.25 0.3594-0.3906 0.2344-0.1562 0.5156-0.2344 0.2031-0.0625 0.625-0.1094 0.8594-0.1094 1.25-0.25 0.0156-0.1406 0.0156-0.1719 0-0.4375-0.2031-0.6094-0.2656-0.2344-0.7969-0.2344-0.5 0-0.7344 0.1719-0.2344 0.1719-0.3594 0.6094l-0.6875-0.0937q0.0937-0.4375 0.3125-0.7031 0.2188-0.2812 0.625-0.4219 0.4062-0.1562 0.9375-0.1562t0.8594 0.125q0.3438 0.125 0.5 0.3281 0.1562 0.1875 0.2188 0.4688 0.0312 0.1875 0.0312 0.6562v0.9375q0 0.9688 0.0469 1.234 0.0469 0.2656 0.1719 0.5h-0.7344q-0.1094-0.2188-0.1406-0.5156zm-0.0625-1.562q-0.375 0.1562-1.141 0.2656-0.4375 0.0625-0.625 0.1406-0.1719 0.0781-0.2656 0.2344-0.0937 0.1406-0.0937 0.3281 0 0.2812 0.2031 0.4688 0.2188 0.1875 0.625 0.1875t0.7188-0.1719q0.3281-0.1875 0.4688-0.5 0.1094-0.2344 0.1094-0.7031zm1.809 3.672v-5.75h0.6406v0.5469q0.2188-0.3125 0.5-0.4688 0.2969-0.1719 0.7031-0.1719 0.5312 0 0.9375 0.2812 0.4062 0.2656 0.6094 0.7656 0.2031 0.5 0.2031 1.094 0 0.6406-0.2344 1.156-0.2188 0.5-0.6562 0.7812-0.4375 0.2656-0.9062 0.2656-0.3594 0-0.6406-0.1406-0.2812-0.1562-0.4531-0.3906v2.031zm0.6406-3.641q0 0.7969 0.3125 1.188 0.3281 0.375 0.7969 0.375t0.7969-0.3906q0.3281-0.4062 0.3281-1.234 0-0.7969-0.3281-1.188-0.3125-0.3906-0.7656-0.3906-0.4531 0-0.7969 0.4219-0.3438 0.4062-0.3438 1.219z" fill="#595959"/>
    <g fill-rule="evenodd">
      <path d="m36.09 51.51-12.13 21.54" fill="#000" fill-opacity="0"/>
      <path d="m36.09 51.51-10.91 19.39" stroke="#595959" stroke-linecap="butt" stroke-linejoin="round"/>
      <path d="m25.17 70.9-0.2204-0.7881-0.2755 1.669 1.284-1.102z" fill="#595959" stroke="#595959" stroke-linecap="butt"/>
      <path d="m19.67 310.9h34.52v17.17h-34.52z" fill="#d9ead3"/>
      <path d="m19.67 310.9h34.52v17.17h-34.52z" stroke="#595959" stroke-linecap="butt" stroke-linejoin="round"/>
    </g>
    <path d="m32.17 316.3v4.859q0 0.3125 0.1875 0.4531 0.2031 0.125 0.5156 0.125 0.1875 0 0.3594-0.0312 0.1719-0.0469 0.3438-0.1094l0.1875 0.4844q-0.1719 0.0781-0.4375 0.1406-0.25 0.0781-0.5625 0.0781-0.5625 0-0.9219-0.3125-0.3438-0.3125-0.3438-0.8594v-4.297h-1.281v-0.5312zm3.691 4.031q0.03125 0.5 0.1875 0.8125 0.1719 0.2969 0.4375 0.4531 0.2812 0.1406 0.6094 0.1406t0.5781-0.0937q0.2656-0.0937 0.5469-0.2812l0.3125 0.4375q-0.2969 0.2344-0.6719 0.375-0.375 0.125-0.7656 0.125-0.625 0-1.062-0.2656-0.4219-0.2812-0.6562-0.7812-0.2188-0.5-0.2188-1.141 0-0.6406 0.2188-1.141 0.2344-0.5 0.6406-0.7812 0.4219-0.2812 0.9844-0.2812 0.5312 0 0.9062 0.25 0.3906 0.25 0.5938 0.7188 0.2188 0.4531 0.2188 1.094 0 0.1094-0.01563 0.2031 0 0.0937-0.01563 0.1562zm1.141-1.875q-0.4531 0-0.7812 0.3438-0.3125 0.3281-0.3438 1.016h2.188q-0.01563-0.6719-0.2969-1.016-0.2812-0.3438-0.7656-0.3438zm3.128 3.75v-4.219h0.5781l0.04687 0.5938q0.2656-0.3281 0.6406-0.5 0.3906-0.1719 0.75-0.1719 0.625 0 0.9062 0.3281 0.2812 0.3281 0.2812 0.9062v3.062h-0.6719v-2.562q0-0.4375-0.04687-0.7031-0.04687-0.2656-0.2031-0.375-0.1406-0.125-0.4688-0.125-0.25 0-0.4688 0.1094-0.2188 0.0937-0.3906 0.2656-0.1562 0.1562-0.2812 0.3281v3.062z" fill="#434343"/>
    <g fill-rule="evenodd">
      <path d="m203 310.9h-10.66v17.19h10.83l5.21-8.677z" fill="#cfe2f3"/>
      <path d="m203 310.9h-10.66v17.19h10.83l5.21-8.677z" stroke="#595959" stroke-linecap="butt" stroke-linejoin="round"/>
      <path d="m210.7 328.1 16.19 0.0131-0.063-17.13-16.31-0.0131 5.375 8.625z" fill="#cfe2f3"/>
      <path d="m210.7 328.1 16.19 0.0131-0.063-17.13-16.31-0.0131 5.375 8.625z" stroke="#595959" stroke-linecap="butt" stroke-linejoin="round"/>
      <path d="m226.9 310.9h34.52v17.17h-34.52z" fill="#cfe2f3"/>
      <path d="m226.9 310.9h34.52v17.17h-34.52z" stroke="#595959" stroke-linecap="butt" stroke-linejoin="round"/>
    </g>
    <path d="m239.6 317.9q0.5625 0 0.8906 0.2812 0.3438 0.2656 0.4844 0.7656 0.1562 0.4844 0.1562 1.141 0 0.6406-0.1875 1.141-0.1719 0.5-0.5312 0.7812-0.3594 0.2812-0.9062 0.2812-0.7031 0-1.125-0.4844v2l-0.6719 0.0937v-5.922h0.5781l0.0625 0.5938q0.2188-0.3281 0.5469-0.5 0.3281-0.1719 0.7031-0.1719zm-0.1562 0.5312q-0.3438 0-0.625 0.2188-0.2656 0.2031-0.4375 0.4688v2.078q0.1719 0.25 0.4219 0.3906 0.25 0.1406 0.5469 0.1406 0.5312 0 0.7812-0.3906 0.2656-0.4062 0.2656-1.25 0-0.5469-0.1094-0.9062-0.0937-0.375-0.3125-0.5625-0.2031-0.1875-0.5312-0.1875zm6.409 3.547q-0.2031 0.1562-0.5156 0.2344-0.3125 0.0781-0.6094 0.0781-0.6719 0-1.047-0.3594-0.3594-0.3594-0.3594-0.9219v-2.5h-0.9688v-0.5312h0.9688v-0.9531l0.6719-0.0781v1.031h1.453l-0.0781 0.5312h-1.375v2.5q0 0.3438 0.1719 0.5312 0.1875 0.1875 0.625 0.1875 0.2344 0 0.4375-0.0469 0.2031-0.0625 0.375-0.1562zm1.503 0.2188v-0.5156h0.6562v-3.188h-0.6562v-0.5156h1.172l0.125 1q0.2344-0.5156 0.5781-0.7969 0.3594-0.2812 0.9219-0.2812 0.1875 0 0.3125 0.0312 0.1406 0.0156 0.2969 0.0469l-0.2031 0.6094q-0.125-0.0312-0.2344-0.0469-0.1094-0.0312-0.25-0.0312-0.4844 0-0.8438 0.3438-0.3438 0.3438-0.5469 1.047v1.781h0.8594v0.5156zm2.75-2.781v-0.9219l0.0625-0.5156h0.5938l-0.1094 1.438z" fill="#999"/>
    <path d="m251.7 310.9h9.764v17.2h-9.764z" fill="#000" fill-opacity="0" fill-rule="evenodd"/>
    <path d="m255.5 323.1q0.3438 0 0.5938 0.125t0.3906 0.3438q0.1406 0.2031 0.1406 0.4531 0 0.2188-0.1094 0.4062-0.0937 0.1719-0.2656 0.2969-0.1562 0.1094-0.3438 0.1562 0.2188 0.0156 0.4062 0.125 0.1875 0.0937 0.2969 0.2969 0.125 0.1875 0.125 0.4688 0 0.3281-0.1562 0.5781t-0.4531 0.4062q-0.2812 0.1406-0.6562 0.1406-0.3125 0-0.625-0.1094-0.2969-0.125-0.5-0.375l0.2969-0.25q0.1562 0.1875 0.375 0.2812 0.2188 0.0781 0.4375 0.0781 0.3906 0 0.5938-0.2031 0.2188-0.2031 0.2188-0.5469 0-0.25-0.1094-0.4062-0.0937-0.1562-0.2656-0.2188-0.1562-0.0625-0.375-0.0625h-0.3125l0.0469-0.3594h0.2188q0.1875 0 0.3438-0.0625 0.1562-0.0781 0.25-0.2188 0.1094-0.1406 0.1094-0.3594 0-0.2969-0.2031-0.4531-0.2031-0.1719-0.4844-0.1719-0.25 0-0.4375 0.0937-0.1719 0.0781-0.3438 0.25l-0.25-0.2812q0.2344-0.2188 0.5-0.3125 0.2656-0.1094 0.5469-0.1094zm3.744 0.0625v3.562h-0.4375v-3.078l-0.8438 0.5156-0.2031-0.3125 1.094-0.6875zm0.7656 3.312v0.3594h-2.109v-0.3594z" fill="#999"/>
    <path d="m19.98 253.7h94.55v19.4h-94.55z" fill="#000" fill-opacity="0" fill-rule="evenodd"/>
    <path d="m27.56 263.9q0-0.4219-0.1562-0.6406-0.1562-0.2344-0.4375-0.3125-0.2656-0.0937-0.5781-0.0937h-0.9375v2.016h0.9062q0.2031 0 0.4062-0.0312 0.2188-0.0469 0.3906-0.1406 0.1875-0.1094 0.2969-0.2969t0.1094-0.5zm-0.2188-2.531q0-0.4688-0.2969-0.6719-0.2812-0.2031-0.7812-0.2031h-0.8125v1.797h0.8906q0.4844 0 0.7344-0.2188 0.2656-0.2188 0.2656-0.7031zm0.9531 2.5q0 0.4531-0.1875 0.7656-0.1719 0.2969-0.4688 0.4844-0.2969 0.1719-0.6719 0.25-0.3594 0.0781-0.7344 0.0781h-1.484v-5.516h1.359q0.3594 0 0.7031 0.0781 0.3594 0.0625 0.625 0.2188 0.2812 0.1562 0.4531 0.4219 0.1719 0.2656 0.1719 0.6719 0 0.3594-0.1562 0.6094-0.1406 0.25-0.375 0.4062-0.2344 0.1406-0.5 0.1875 0.3125 0.0469 0.5938 0.1875 0.2969 0.1406 0.4844 0.4219t0.1875 0.7344zm2.894-2.719q0.5938 0 1 0.2656 0.4062 0.2656 0.6094 0.7656 0.2031 0.4844 0.2031 1.156 0 0.6406-0.2188 1.141-0.2031 0.5-0.6094 0.7812-0.4063 0.2812-0.9844 0.2812-0.5938 0-1-0.2656-0.4062-0.2812-0.6094-0.7656-0.2031-0.5-0.2031-1.156t0.2031-1.156 0.6094-0.7656q0.4062-0.2812 1-0.2812zm0 0.5469q-0.5469 0-0.8281 0.4062-0.2656 0.3906-0.2656 1.25 0 0.8281 0.2656 1.234 0.2812 0.4062 0.8281 0.4062 0.5312 0 0.7969-0.4062 0.2813-0.4062 0.2813-1.25t-0.2656-1.234q-0.2656-0.4062-0.8125-0.4062zm3.612 3.75h-0.7812l1.562-2.219-1.359-2h0.7969l0.9688 1.578 0.9844-1.578h0.7656l-1.359 1.969 1.562 2.25h-0.8281l-1.156-1.812zm7.362-4.75 0.3281 0.5156-2.828 1.734 2.828 1.75-0.3594 0.4844-3.047-1.891v-0.7031zm5.316 3.219q0 0.4844-0.25 0.8594-0.2344 0.3594-0.6875 0.5625-0.4375 0.2031-1.078 0.2031-0.6094 0-1.094-0.1875t-0.8438-0.5156l0.4219-0.4688q0.2812 0.2656 0.6562 0.4375 0.375 0.1562 0.875 0.1562 0.3281 0 0.625-0.1094 0.2969-0.125 0.4688-0.3438 0.1875-0.2188 0.1875-0.5781 0-0.2656-0.1094-0.4531t-0.375-0.3281q-0.25-0.1562-0.7344-0.2969-0.5469-0.1562-0.9375-0.3594-0.3906-0.2031-0.6094-0.5-0.2188-0.2969-0.2188-0.7344 0-0.4062 0.2188-0.7188 0.2344-0.3281 0.625-0.5 0.4062-0.1875 0.9375-0.1875 0.5625 0 0.9844 0.1719 0.4219 0.1562 0.7656 0.4531l-0.4062 0.4531q-0.2969-0.2656-0.6406-0.375-0.3281-0.125-0.6875-0.125-0.2969 0-0.5469 0.0937-0.25 0.0781-0.4062 0.2656-0.1406 0.1719-0.1406 0.4531 0 0.2344 0.125 0.4062 0.125 0.1719 0.4219 0.3125 0.3125 0.1406 0.8438 0.2969 0.4219 0.125 0.7812 0.3125 0.375 0.1875 0.5938 0.5156 0.2344 0.3125 0.2344 0.8281zm4.644 1.312q-0.2031 0.1562-0.5156 0.2344-0.3125 0.0781-0.6094 0.0781-0.6719 0-1.047-0.3594-0.3594-0.3594-0.3594-0.9219v-2.5h-0.9688v-0.5312h0.9688v-0.9531l0.6719-0.0781v1.031h1.453l-0.07813 0.5312h-1.375v2.5q0 0.3438 0.1719 0.5312 0.1875 0.1875 0.625 0.1875 0.2344 0 0.4375-0.0469 0.2031-0.0625 0.375-0.1562zm1.987-1.656q0.03125 0.5 0.1875 0.8125 0.1719 0.2969 0.4375 0.4531 0.2812 0.1406 0.6094 0.1406t0.5781-0.0937q0.2656-0.0937 0.5469-0.2812l0.3125 0.4375q-0.2969 0.2344-0.6719 0.375-0.375 0.125-0.7656 0.125-0.625 0-1.062-0.2656-0.4219-0.2812-0.6562-0.7812-0.2188-0.5-0.2188-1.141 0-0.6406 0.2188-1.141 0.2344-0.5 0.6406-0.7812 0.4219-0.2812 0.9844-0.2812 0.5312 0 0.9062 0.25 0.3906 0.25 0.5938 0.7188 0.2188 0.4531 0.2188 1.094 0 0.1094-0.01563 0.2031 0 0.0937-0.01563 0.1562zm1.141-1.875q-0.4531 0-0.7812 0.3438-0.3125 0.3281-0.3438 1.016h2.188q-0.01563-0.6719-0.2969-1.016-0.2812-0.3438-0.7656-0.3438zm6.144 2.828q0 0.25 0.07813 0.375 0.09375 0.1094 0.2656 0.1719l-0.1562 0.4688q-0.2656-0.0312-0.4844-0.1719-0.2031-0.1406-0.2812-0.4219-0.2344 0.2969-0.5781 0.4531-0.3438 0.1406-0.75 0.1406-0.625 0-1-0.3594-0.3594-0.3594-0.3594-0.9375 0-0.6562 0.5-1 0.5156-0.3594 1.484-0.3594h0.6094v-0.3438q0-0.4531-0.2656-0.6406-0.2656-0.2031-0.7344-0.2031-0.2031 0-0.4844 0.0625-0.2812 0.0469-0.6094 0.1562l-0.1719-0.5q0.375-0.1562 0.7188-0.2031 0.3438-0.0625 0.6562-0.0625 0.7812 0 1.172 0.375 0.3906 0.3594 0.3906 0.9844zm-1.734 0.5q0.3125 0 0.5938-0.1562t0.4688-0.4375v-1.078h-0.6094q-0.6875 0-0.9844 0.2344-0.2812 0.2344-0.2812 0.6406 0 0.3906 0.2031 0.5938 0.2031 0.2031 0.6094 0.2031zm6.05-5.562 0.6719 0.0781v5.906h-0.5938l-0.0625-0.5625q-0.2344 0.3438-0.5469 0.5-0.2969 0.1562-0.6562 0.1562-0.5469 0-0.9062-0.2656-0.3438-0.2812-0.5156-0.7812t-0.1719-1.141q0-0.6406 0.1875-1.141 0.2031-0.5 0.5625-0.7812 0.375-0.2812 0.9062-0.2812 0.3594 0 0.625 0.125 0.2812 0.125 0.5 0.375zm-0.9531 2.219q-0.5312 0-0.8125 0.4219-0.2812 0.4062-0.2812 1.25 0 0.5312 0.1094 0.9062 0.125 0.375 0.3438 0.5625 0.2188 0.1719 0.5469 0.1719 0.3594 0 0.6094-0.2031 0.2656-0.2031 0.4375-0.4531v-2.109q-0.1719-0.25-0.4219-0.3906-0.25-0.1562-0.5312-0.1562zm6.737-0.4531-1.484 4.25q-0.1406 0.4219-0.375 0.7812-0.2188 0.3594-0.5938 0.5938-0.3594 0.2344-0.9062 0.2812l-0.1094-0.5312q0.4375-0.0781 0.6875-0.2344 0.25-0.1406 0.3906-0.375 0.1562-0.2188 0.2656-0.5469h-0.2188l-1.484-4.219h0.7344l1.203 3.703 1.188-3.703zm2.909 3.438 1.484-4.734h0.7031l-1.844 5.516h-0.7188l-1.844-5.516h0.7344zm3.706-1.094q0.03125 0.5 0.1875 0.8125 0.1719 0.2969 0.4375 0.4531 0.2812 0.1406 0.6094 0.1406t0.5781-0.0937q0.2656-0.0937 0.5469-0.2812l0.3125 0.4375q-0.2969 0.2344-0.6719 0.375-0.375 0.125-0.7656 0.125-0.625 0-1.062-0.2656-0.4219-0.2812-0.6562-0.7812-0.2188-0.5-0.2188-1.141 0-0.6406 0.2188-1.141 0.2344-0.5 0.6406-0.7812 0.4219-0.2812 0.9844-0.2812 0.5312 0 0.9062 0.25 0.3906 0.25 0.5938 0.7188 0.2188 0.4531 0.2188 1.094 0 0.1094-0.01563 0.2031 0 0.0937-0.01563 0.1562zm1.141-1.875q-0.4531 0-0.7812 0.3438-0.3125 0.3281-0.3438 1.016h2.188q-0.01563-0.6719-0.2969-1.016-0.2812-0.3438-0.7656-0.3438zm5.034 3.266q0.3281 0 0.5938-0.1094 0.2812-0.1094 0.5-0.2656l0.3281 0.4375q-0.2656 0.2344-0.6562 0.375-0.3906 0.1406-0.7656 0.1406-0.625 0-1.062-0.2656-0.4375-0.2812-0.6719-0.7656-0.2344-0.4844-0.2344-1.156 0-0.625 0.2344-1.125t0.6719-0.7812q0.4375-0.2969 1.078-0.2969 0.4062 0 0.75 0.125 0.3594 0.1094 0.6562 0.3594l-0.3281 0.4531q-0.2656-0.1875-0.5469-0.2812-0.2656-0.0937-0.5469-0.0937-0.5469 0-0.9062 0.4062-0.3438 0.4062-0.3438 1.234 0 0.5625 0.1562 0.9219 0.1719 0.3594 0.4531 0.5312 0.2812 0.1562 0.6406 0.1562zm5.878-4.266 0.3281 0.5156-2.828 1.734 2.828 1.75-0.3594 0.4844-3.047-1.891v-0.7031zm3.753-0.1562v4.906h-0.6875v-4.906h-1.734v-0.6094h4.156l-0.0625 0.6094zm7.037 0.25 3.531 1.812v0.6875l-3.531 1.797-0.2656-0.5156 3.172-1.625-3.172-1.625zm-4 0 3.531 1.812v0.6875l-3.531 1.797-0.2656-0.5156 3.172-1.625-3.172-1.625z" fill="#595959"/>
    <path d="m54.19 310.9h34.52v17.17h-34.52z" fill="#cfe2f3" fill-rule="evenodd"/>
    <path d="m54.19 310.9h34.52v17.17h-34.52z" fill-rule="evenodd" stroke="#595959" stroke-linecap="butt" stroke-linejoin="round"/>
    <path d="m66.94 317.9q0.5625 0 0.8906 0.2812 0.3438 0.2656 0.4844 0.7656 0.1562 0.4844 0.1562 1.141 0 0.6406-0.1875 1.141-0.1719 0.5-0.5312 0.7812t-0.9062 0.2812q-0.7031 0-1.125-0.4844v2l-0.6719 0.0937v-5.922h0.5781l0.0625 0.5938q0.2188-0.3281 0.5469-0.5 0.3281-0.1719 0.7031-0.1719zm-0.1562 0.5312q-0.3438 0-0.625 0.2188-0.2656 0.2031-0.4375 0.4688v2.078q0.1719 0.25 0.4219 0.3906 0.25 0.1406 0.5469 0.1406 0.5312 0 0.7812-0.3906 0.2656-0.4062 0.2656-1.25 0-0.5469-0.1094-0.9062-0.09375-0.375-0.3125-0.5625-0.2031-0.1875-0.5312-0.1875zm6.409 3.547q-0.2031 0.1562-0.5156 0.2344-0.3125 0.0781-0.6094 0.0781-0.6719 0-1.047-0.3594-0.3594-0.3594-0.3594-0.9219v-2.5h-0.9688v-0.5312h0.9688v-0.9531l0.6719-0.0781v1.031h1.453l-0.07813 0.5312h-1.375v2.5q0 0.3438 0.1719 0.5312 0.1875 0.1875 0.625 0.1875 0.2344 0 0.4375-0.0469 0.2031-0.0625 0.375-0.1562zm1.503 0.2188v-0.5156h0.6562v-3.188h-0.6562v-0.5156h1.172l0.125 1q0.2344-0.5156 0.5781-0.7969 0.3594-0.2812 0.9219-0.2812 0.1875 0 0.3125 0.0312 0.1406 0.0156 0.2969 0.0469l-0.2031 0.6094q-0.125-0.0312-0.2344-0.0469-0.1094-0.0312-0.25-0.0312-0.4844 0-0.8438 0.3438-0.3438 0.3438-0.5469 1.047v1.781h0.8594v0.5156zm2.75-2.781v-0.9219l0.0625-0.5156h0.5938l-0.1094 1.438z" fill="#434343"/>
    <path d="m78.96 310.9h9.764v17.2h-9.764z" fill="#000" fill-opacity="0" fill-rule="evenodd"/>
    <path d="m86.12 323.1q0.5938 0 0.8906 0.5 0.3125 0.4844 0.3125 1.406 0 0.9062-0.3125 1.406-0.2969 0.4844-0.8906 0.4844t-0.9062-0.4844q-0.2969-0.5-0.2969-1.406 0-0.9219 0.2969-1.406 0.3125-0.5 0.9062-0.5zm0 0.3594q-0.3281 0-0.5312 0.3594-0.1875 0.3594-0.1875 1.188 0 0.4062 0.03125 0.7031 0.04687 0.2812 0.1406 0.4688 0.09375 0.1875 0.2188 0.2812 0.1406 0.0781 0.3281 0.0781 0.2344 0 0.3906-0.1562 0.1719-0.1562 0.25-0.5 0.09375-0.3438 0.09375-0.875 0-0.5625-0.07813-0.8906-0.07813-0.3438-0.2344-0.5-0.1562-0.1562-0.4219-0.1562zm0.5469 0.1406 0.1094 0.3906-1.156 2.359-0.1719-0.3125z" fill="#999"/>
    <path d="m88.72 310.9h34.52v17.17h-34.52z" fill="#cfe2f3" fill-rule="evenodd"/>
    <path d="m88.72 310.9h34.52v17.17h-34.52z" fill-rule="evenodd" stroke="#595959" stroke-linecap="butt" stroke-linejoin="round"/>
    <path d="m101.5 317.9q0.5625 0 0.8906 0.2812 0.3438 0.2656 0.4844 0.7656 0.1562 0.4844 0.1562 1.141 0 0.6406-0.1875 1.141-0.1719 0.5-0.5312 0.7812-0.3594 0.2812-0.9062 0.2812-0.7031 0-1.125-0.4844v2l-0.6719 0.0937v-5.922h0.5781l0.0625 0.5938q0.2188-0.3281 0.5469-0.5 0.3281-0.1719 0.7031-0.1719zm-0.1562 0.5312q-0.3438 0-0.625 0.2188-0.2656 0.2031-0.4375 0.4688v2.078q0.1719 0.25 0.4219 0.3906 0.25 0.1406 0.5469 0.1406 0.5312 0 0.7812-0.3906 0.2656-0.4062 0.2656-1.25 0-0.5469-0.1094-0.9062-0.0937-0.375-0.3125-0.5625-0.2031-0.1875-0.5312-0.1875zm6.409 3.547q-0.2031 0.1562-0.5156 0.2344-0.3125 0.0781-0.6094 0.0781-0.6719 0-1.047-0.3594-0.3594-0.3594-0.3594-0.9219v-2.5h-0.9688v-0.5312h0.9688v-0.9531l0.6719-0.0781v1.031h1.453l-0.0781 0.5312h-1.375v2.5q0 0.3438 0.1719 0.5312 0.1875 0.1875 0.625 0.1875 0.2344 0 0.4375-0.0469 0.2031-0.0625 0.375-0.1562zm1.503 0.2188v-0.5156h0.6562v-3.188h-0.6562v-0.5156h1.172l0.125 1q0.2344-0.5156 0.5781-0.7969 0.3594-0.2812 0.9219-0.2812 0.1875 0 0.3125 0.0312 0.1406 0.0156 0.2969 0.0469l-0.2031 0.6094q-0.125-0.0312-0.2344-0.0469-0.1094-0.0312-0.25-0.0312-0.4844 0-0.8438 0.3438-0.3438 0.3438-0.5469 1.047v1.781h0.8594v0.5156zm2.75-2.781v-0.9219l0.0625-0.5156h0.5938l-0.1094 1.438z" fill="#434343"/>
    <path d="m113.5 310.9h9.764v17.2h-9.764z" fill="#000" fill-opacity="0" fill-rule="evenodd"/>
    <path d="m121 323.2v3.562h-0.4375v-3.078l-0.8438 0.5156-0.2031-0.3125 1.094-0.6875zm0.7656 3.312v0.3594h-2.109v-0.3594z" fill="#999"/>
    <path d="m123.3 310.9h34.52v17.17h-34.52z" fill="#cfe2f3" fill-rule="evenodd"/>
    <path d="m123.3 310.9h34.52v17.17h-34.52z" fill-rule="evenodd" stroke="#595959" stroke-linecap="butt" stroke-linejoin="round"/>
    <path d="m136 317.9q0.5625 0 0.8906 0.2812 0.3438 0.2656 0.4844 0.7656 0.1562 0.4844 0.1562 1.141 0 0.6406-0.1875 1.141-0.1719 0.5-0.5312 0.7812-0.3594 0.2812-0.9062 0.2812-0.7031 0-1.125-0.4844v2l-0.6719 0.0937v-5.922h0.5781l0.0625 0.5938q0.2188-0.3281 0.5469-0.5 0.3281-0.1719 0.7031-0.1719zm-0.1562 0.5312q-0.3438 0-0.625 0.2188-0.2656 0.2031-0.4375 0.4688v2.078q0.1719 0.25 0.4219 0.3906 0.25 0.1406 0.5469 0.1406 0.5312 0 0.7812-0.3906 0.2656-0.4062 0.2656-1.25 0-0.5469-0.1094-0.9062-0.0937-0.375-0.3125-0.5625-0.2031-0.1875-0.5312-0.1875zm6.409 3.547q-0.2031 0.1562-0.5156 0.2344-0.3125 0.0781-0.6094 0.0781-0.6719 0-1.047-0.3594-0.3594-0.3594-0.3594-0.9219v-2.5h-0.9688v-0.5312h0.9688v-0.9531l0.6719-0.0781v1.031h1.453l-0.0781 0.5312h-1.375v2.5q0 0.3438 0.1719 0.5312 0.1875 0.1875 0.625 0.1875 0.2344 0 0.4375-0.0469 0.2031-0.0625 0.375-0.1562zm1.503 0.2188v-0.5156h0.6562v-3.188h-0.6562v-0.5156h1.172l0.125 1q0.2344-0.5156 0.5781-0.7969 0.3594-0.2812 0.9219-0.2812 0.1875 0 0.3125 0.0312 0.1406 0.0156 0.2969 0.0469l-0.2031 0.6094q-0.125-0.0312-0.2344-0.0469-0.1094-0.0312-0.25-0.0312-0.4844 0-0.8438 0.3438-0.3438 0.3438-0.5469 1.047v1.781h0.8594v0.5156zm2.75-2.781v-0.9219l0.0625-0.5156h0.5938l-0.1094 1.438z" fill="#434343"/>
    <path d="m148 310.9h9.764v17.2h-9.764z" fill="#000" fill-opacity="0" fill-rule="evenodd"/>
    <path d="m155 323.1q0.3438 0 0.5938 0.1406 0.25 0.1406 0.375 0.375 0.1406 0.2188 0.1406 0.5156 0 0.25-0.0937 0.5-0.0937 0.2344-0.2812 0.5-0.1875 0.2656-0.5 0.5938-0.3125 0.3125-0.7812 0.7344h1.734l-0.0469 0.375h-2.188v-0.3594q0.4062-0.4062 0.7031-0.7031 0.2969-0.2969 0.4844-0.5156 0.1875-0.2344 0.2969-0.4062 0.1094-0.1875 0.1406-0.3594 0.0469-0.1719 0.0469-0.3438 0-0.3125-0.1719-0.4844-0.1719-0.1875-0.4688-0.1875-0.2812 0-0.4531 0.0937-0.1719 0.0937-0.3438 0.2969l-0.3125-0.2344q0.2188-0.2656 0.4844-0.3906 0.2656-0.1406 0.6406-0.1406z" fill="#999"/>
    <path d="m157.8 310.9h34.52v17.17h-34.52z" fill="#cfe2f3" fill-rule="evenodd"/>
    <path d="m157.8 310.9h34.52v17.17h-34.52z" fill-rule="evenodd" stroke="#595959" stroke-linecap="butt" stroke-linejoin="round"/>
    <path d="m170.5 317.9q0.5625 0 0.8906 0.2812 0.3438 0.2656 0.4844 0.7656 0.1562 0.4844 0.1562 1.141 0 0.6406-0.1875 1.141-0.1719 0.5-0.5312 0.7812-0.3594 0.2812-0.9062 0.2812-0.7031 0-1.125-0.4844v2l-0.6719 0.0937v-5.922h0.5781l0.0625 0.5938q0.2188-0.3281 0.5469-0.5 0.3281-0.1719 0.7031-0.1719zm-0.1562 0.5312q-0.3438 0-0.625 0.2188-0.2656 0.2031-0.4375 0.4688v2.078q0.1719 0.25 0.4219 0.3906 0.25 0.1406 0.5469 0.1406 0.5312 0 0.7812-0.3906 0.2656-0.4062 0.2656-1.25 0-0.5469-0.1094-0.9062-0.0937-0.375-0.3125-0.5625-0.2031-0.1875-0.5312-0.1875zm6.409 3.547q-0.2031 0.1562-0.5156 0.2344-0.3125 0.0781-0.6094 0.0781-0.6719 0-1.047-0.3594-0.3594-0.3594-0.3594-0.9219v-2.5h-0.9688v-0.5312h0.9688v-0.9531l0.6719-0.0781v1.031h1.453l-0.0781 0.5312h-1.375v2.5q0 0.3438 0.1719 0.5312 0.1875 0.1875 0.625 0.1875 0.2344 0 0.4375-0.0469 0.2031-0.0625 0.375-0.1562zm1.503 0.2188v-0.5156h0.6562v-3.188h-0.6562v-0.5156h1.172l0.125 1q0.2344-0.5156 0.5781-0.7969 0.3594-0.2812 0.9219-0.2812 0.1875 0 0.3125 0.0312 0.1406 0.0156 0.2969 0.0469l-0.2031 0.6094q-0.125-0.0312-0.2344-0.0469-0.1094-0.0312-0.25-0.0312-0.4844 0-0.8438 0.3438-0.3438 0.3438-0.5469 1.047v1.781h0.8594v0.5156zm2.75-2.781v-0.9219l0.0625-0.5156h0.5938l-0.1094 1.438z" fill="#434343"/>
    <path d="m182.6 310.9h9.764v17.2h-9.764z" fill="#000" fill-opacity="0" fill-rule="evenodd"/>
    <path d="m189.6 323.1q0.3438 0 0.5938 0.125t0.3906 0.3438q0.1406 0.2031 0.1406 0.4531 0 0.2188-0.1094 0.4062-0.0937 0.1719-0.2656 0.2969-0.1562 0.1094-0.3438 0.1562 0.2188 0.0156 0.4062 0.125 0.1875 0.0937 0.2969 0.2969 0.125 0.1875 0.125 0.4688 0 0.3281-0.1562 0.5781t-0.4531 0.4062q-0.2812 0.1406-0.6562 0.1406-0.3125 0-0.625-0.1094-0.2969-0.125-0.5-0.375l0.2969-0.25q0.1562 0.1875 0.375 0.2812 0.2188 0.0781 0.4375 0.0781 0.3906 0 0.5938-0.2031 0.2188-0.2031 0.2188-0.5469 0-0.25-0.1094-0.4062-0.0937-0.1562-0.2656-0.2188-0.1562-0.0625-0.375-0.0625h-0.3125l0.0469-0.3594h0.2188q0.1875 0 0.3438-0.0625 0.1562-0.0781 0.25-0.2188 0.1094-0.1406 0.1094-0.3594 0-0.2969-0.2031-0.4531-0.2031-0.1719-0.4844-0.1719-0.25 0-0.4375 0.0937-0.1719 0.0781-0.3438 0.25l-0.25-0.2812q0.2344-0.2188 0.5-0.3125 0.2656-0.1094 0.5469-0.1094z" fill="#999"/>
    <path d="m19.05 270.6h34.52v17.17h-34.52z" fill="#cfe2f3" fill-rule="evenodd"/>
    <path d="m19.05 270.6h34.52v17.17h-34.52z" fill-rule="evenodd" stroke="#595959" stroke-linecap="butt" stroke-linejoin="round"/>
    <path d="m31.8 277.6q0.5625 0 0.8906 0.2812 0.3438 0.2656 0.4844 0.7656 0.1562 0.4844 0.1562 1.141 0 0.6406-0.1875 1.141-0.1719 0.5-0.5312 0.7812t-0.9063 0.2812q-0.7031 0-1.125-0.4844v2l-0.6719 0.0937v-5.922h0.5781l0.0625 0.5938q0.2188-0.3281 0.5469-0.5 0.3281-0.1719 0.7031-0.1719zm-0.1562 0.5312q-0.3438 0-0.625 0.2188-0.2656 0.2031-0.4375 0.4688v2.078q0.1719 0.25 0.4219 0.3906 0.25 0.1406 0.5469 0.1406 0.5313 0 0.7813-0.3906 0.2656-0.4062 0.2656-1.25 0-0.5469-0.1094-0.9062-0.09375-0.375-0.3125-0.5625-0.2031-0.1875-0.5313-0.1875zm6.409 3.547q-0.2031 0.1562-0.5156 0.2344-0.3125 0.0781-0.6094 0.0781-0.6719 0-1.047-0.3594-0.3594-0.3594-0.3594-0.9219v-2.5h-0.9688v-0.5312h0.9688v-0.9531l0.6719-0.0781v1.031h1.453l-0.07813 0.5312h-1.375v2.5q0 0.3438 0.1719 0.5312 0.1875 0.1875 0.625 0.1875 0.2344 0 0.4375-0.0469 0.2031-0.0625 0.375-0.1562zm1.503 0.2188v-0.5156h0.6562v-3.188h-0.6562v-0.5156h1.172l0.125 1q0.2344-0.5156 0.5781-0.7969 0.3594-0.2812 0.9219-0.2812 0.1875 0 0.3125 0.0312 0.1406 0.0156 0.2969 0.0469l-0.2031 0.6094q-0.125-0.0312-0.2344-0.0469-0.1094-0.0312-0.25-0.0312-0.4844 0-0.8438 0.3438-0.3438 0.3438-0.5469 1.047v1.781h0.8594v0.5156zm2.75-2.781v-0.9219l0.0625-0.5156h0.5938l-0.1094 1.438z" fill="#434343"/>
    <g fill-rule="evenodd">
      <path d="m36.31 287.8-5.984 20.82" fill="#000" fill-opacity="0"/>
      <path d="m36.31 287.8-5.301 18.44" stroke="#595959" stroke-linecap="butt" stroke-linejoin="round"/>
      <path d="m31.01 306.2-0.3963-0.7159 0.1169 1.688 0.9953-1.368z" fill="#595959" stroke="#595959" stroke-linecap="butt"/>
      <path d="m16.6 349.5h40.66v22.94h-40.66z" fill="#fff2cc"/>
      <path d="m16.6 349.5h40.66v22.94h-40.66z" stroke="#595959" stroke-linecap="butt" stroke-linejoin="round"/>
      <path d="m19.66 352.4h17.26v17.18h-17.26z" fill="#f4cccc"/>
      <path d="m19.66 352.4h17.26v17.18h-17.26z" stroke="#595959" stroke-linecap="butt" stroke-linejoin="round"/>
    </g>
    <path d="m28.62 358.7v4.906h-0.6875v-4.906h-1.734v-0.6094h4.156l-0.0625 0.6094z" fill="#434343"/>
    <path d="m36.92 352.4h17.26v17.18h-17.26z" fill="#f4cccc" fill-rule="evenodd"/>
    <path d="m36.92 352.4h17.26v17.18h-17.26z" fill-rule="evenodd" stroke="#595959" stroke-linecap="butt" stroke-linejoin="round"/>
    <path d="m45.89 358.7v4.906h-0.6875v-4.906h-1.734v-0.6094h4.156l-0.0625 0.6094z" fill="#434343"/>
    <g fill-rule="evenodd">
      <path d="m104.7 349.5h75.04v22.94h-75.04z" fill="#fff2cc"/>
      <path d="m104.7 349.5h75.04v22.94h-75.04z" stroke="#595959" stroke-linecap="butt" stroke-linejoin="round"/>
      <path d="m107.7 352.4h17.26v17.18h-17.26z" fill="#f4cccc"/>
      <path d="m107.7 352.4h17.26v17.18h-17.26z" stroke="#595959" stroke-linecap="butt" stroke-linejoin="round"/>
    </g>
    <path d="m116.7 358.7v4.906h-0.6875v-4.906h-1.734v-0.6094h4.156l-0.0625 0.6094z" fill="#434343"/>
    <path d="m125 352.4h17.26v17.18h-17.26z" fill="#f4cccc" fill-rule="evenodd"/>
    <path d="m125 352.4h17.26v17.18h-17.26z" fill-rule="evenodd" stroke="#595959" stroke-linecap="butt" stroke-linejoin="round"/>
    <path d="m134 358.7v4.906h-0.6875v-4.906h-1.734v-0.6094h4.156l-0.0625 0.6094z" fill="#434343"/>
    <path d="m142.3 352.4h17.26v17.18h-17.26z" fill="#f4cccc" fill-rule="evenodd"/>
    <path d="m142.3 352.4h17.26v17.18h-17.26z" fill-rule="evenodd" stroke="#595959" stroke-linecap="butt" stroke-linejoin="round"/>
    <path d="m151.2 358.7v4.906h-0.6875v-4.906h-1.734v-0.6094h4.156l-0.0625 0.6094z" fill="#434343"/>
    <path d="m159.5 352.4h17.26v17.18h-17.26z" fill="#f4cccc" fill-rule="evenodd"/>
    <path d="m159.5 352.4h17.26v17.18h-17.26z" fill-rule="evenodd" stroke="#595959" stroke-linecap="butt" stroke-linejoin="round"/>
    <path d="m168.5 358.7v4.906h-0.6875v-4.906h-1.734v-0.6094h4.156l-0.0625 0.6094z" fill="#434343"/>
    <g fill-rule="evenodd">
      <path d="m183.1 349.5h144v22.94h-144z" fill="#fff2cc"/>
      <path d="m183.1 349.5h144v22.94h-144z" stroke="#595959" stroke-linecap="butt" stroke-linejoin="round"/>
      <path d="m186.1 352.4h17.26v17.18h-17.26z" fill="#f4cccc"/>
      <path d="m186.1 352.4h17.26v17.18h-17.26z" stroke="#595959" stroke-linecap="butt" stroke-linejoin="round"/>
    </g>
    <path d="m195 358.7v4.906h-0.6875v-4.906h-1.734v-0.6094h4.156l-0.0625 0.6094z" fill="#434343"/>
    <path d="m203.3 352.4h17.26v17.18h-17.26z" fill="#f4cccc" fill-rule="evenodd"/>
    <path d="m203.3 352.4h17.26v17.18h-17.26z" fill-rule="evenodd" stroke="#595959" stroke-linecap="butt" stroke-linejoin="round"/>
    <path d="m212.3 358.7v4.906h-0.6875v-4.906h-1.734v-0.6094h4.156l-0.0625 0.6094z" fill="#434343"/>
    <path d="m220.6 352.4h17.26v17.18h-17.26z" fill="#f4cccc" fill-rule="evenodd"/>
    <path d="m220.6 352.4h17.26v17.18h-17.26z" fill-rule="evenodd" stroke="#595959" stroke-linecap="butt" stroke-linejoin="round"/>
    <path d="m229.6 358.7v4.906h-0.6875v-4.906h-1.734v-0.6094h4.156l-0.0625 0.6094z" fill="#434343"/>
    <g fill-rule="evenodd">
      <path d="m237.9 352.4h17.26v17.18h-17.26z" fill="#fff"/>
      <path d="m237.9 352.4h17.26v17.18h-17.26z" stroke="#595959" stroke-linecap="butt" stroke-linejoin="round"/>
      <path d="m255.1 352.4h17.26v17.18h-17.26z" fill="#fff"/>
      <path d="m255.1 352.4h17.26v17.18h-17.26z" stroke="#595959" stroke-linecap="butt" stroke-linejoin="round"/>
      <path d="m272.4 352.4h17.26v17.18h-17.26z" fill="#fff"/>
      <path d="m272.4 352.4h17.26v17.18h-17.26z" stroke="#595959" stroke-linecap="butt" stroke-linejoin="round"/>
      <path d="m289.6 352.4h17.26v17.18h-17.26z" fill="#fff"/>
      <path d="m289.6 352.4h17.26v17.18h-17.26z" stroke="#595959" stroke-linecap="butt" stroke-linejoin="round"/>
      <path d="m306.9 352.4h17.26v17.18h-17.26z" fill="#fff"/>
      <path d="m306.9 352.4h17.26v17.18h-17.26z" stroke="#595959" stroke-linecap="butt" stroke-linejoin="round"/>
      <path d="m71.45 328.1-42.9 21.48" fill="#000" fill-opacity="0"/>
      <path d="m71.45 328.1-40.69 20.37" stroke="#595959" stroke-linecap="butt" stroke-linejoin="round"/>
      <path d="m30.76 348.5 0.2583-0.7765-1.162 1.229 1.681-0.1944z" fill="#595959" stroke="#595959" stroke-linecap="butt"/>
      <path d="m237.3 374.5c0 3.105-2.517 5.622-5.622 5.622h-97.56c-3.105 0-5.622 2.517-5.622 5.622 0-3.105-2.517-5.622-5.622-5.622h-97.56c-3.105 0-5.622-2.517-5.622-5.622z" fill="#000" fill-opacity="0"/>
      <path d="m237.3 374.5c0 3.105-2.517 5.622-5.622 5.622h-97.56c-3.105 0-5.622 2.517-5.622 5.622 0-3.105-2.517-5.622-5.622-5.622h-97.56c-3.105 0-5.622-2.517-5.622-5.622" fill="#000" fill-opacity="0"/>
      <path d="m237.3 374.5c0 3.105-2.517 5.622-5.622 5.622h-97.56c-3.105 0-5.622 2.517-5.622 5.622 0-3.105-2.517-5.622-5.622-5.622h-97.56c-3.105 0-5.622-2.517-5.622-5.622" stroke="#595959" stroke-linecap="butt" stroke-linejoin="round"/>
      <path d="m98.59 370.7h41.07v29.07h-41.07z" fill="#000" fill-opacity="0"/>
    </g>
    <path d="m108.1 387.4v-5.734h0.7031v5.734zm4.637-1.344 0.7188 0.0937q-0.1719 0.6406-0.6406 1-0.4531 0.3438-1.188 0.3438-0.9062 0-1.438-0.5625t-0.5312-1.578q0-1.047 0.5312-1.625 0.5469-0.5781 1.406-0.5781 0.8281 0 1.359 0.5781 0.5312 0.5625 0.5312 1.594 0 0.0625-0.0156 0.1875h-3.094q0.0469 0.6719 0.3906 1.047 0.3438 0.3594 0.875 0.3594 0.375 0 0.6406-0.2031 0.2812-0.2031 0.4531-0.6562zm-2.312-1.125h2.312q-0.0469-0.5312-0.2656-0.7969-0.3281-0.4062-0.875-0.4062-0.4844 0-0.8125 0.3281-0.3281 0.3281-0.3594 0.875zm3.918 2.469v-4.156h0.625v0.5938q0.4688-0.6875 1.328-0.6875 0.375 0 0.6875 0.1406 0.3125 0.1406 0.4688 0.3594t0.2188 0.5156q0.0469 0.1875 0.0469 0.6875v2.547h-0.7031v-2.531q0-0.4219-0.0937-0.625-0.0781-0.2188-0.2969-0.3438-0.2031-0.1406-0.4844-0.1406-0.4375 0-0.7656 0.2969-0.3281 0.2812-0.3281 1.078v2.266z" fill="#595959"/>
    <g fill-rule="evenodd">
      <path d="m324.2 383.5c0 3.105-2.517 5.622-5.622 5.622h-140.9c-3.105 0-5.622 2.517-5.622 5.622 0-3.105-2.517-5.622-5.622-5.622h-140.9c-3.105 0-5.622-2.517-5.622-5.622z" fill="#000" fill-opacity="0"/>
      <path d="m324.2 383.5c0 3.105-2.517 5.622-5.622 5.622h-140.9c-3.105 0-5.622 2.517-5.622 5.622 0-3.105-2.517-5.622-5.622-5.622h-140.9c-3.105 0-5.622-2.517-5.622-5.622" fill="#000" fill-opacity="0"/>
      <path d="m324.2 383.5c0 3.105-2.517 5.622-5.622 5.622h-140.9c-3.105 0-5.622 2.517-5.622 5.622 0-3.105-2.517-5.622-5.622-5.622h-140.9c-3.105 0-5.622-2.517-5.622-5.622" stroke="#595959" stroke-linecap="butt" stroke-linejoin="round"/>
      <path d="m141.2 379.7h38.48v29.07h-38.48z" fill="#000" fill-opacity="0"/>
    </g>
    <path d="m153.4 394.9 0.6875 0.0781q-0.1094 0.7188-0.5781 1.125t-1.141 0.4062q-0.8594 0-1.375-0.5469-0.5156-0.5625-0.5156-1.609 0-0.6719 0.2188-1.172 0.2344-0.5 0.6875-0.75 0.4531-0.2656 0.9844-0.2656 0.6719 0 1.094 0.3438 0.4375 0.3438 0.5625 0.9688l-0.6875 0.1094q-0.0937-0.4219-0.3438-0.625-0.25-0.2188-0.5938-0.2188-0.5312 0-0.875 0.3906-0.3281 0.375-0.3281 1.203 0 0.8281 0.3125 1.219 0.3281 0.375 0.8438 0.375 0.4219 0 0.6875-0.25 0.2812-0.2656 0.3594-0.7812zm4 1q-0.3906 0.3281-0.75 0.4688-0.3594 0.1406-0.7812 0.1406-0.6719 0-1.047-0.3281-0.3594-0.3438-0.3594-0.8594 0-0.3125 0.125-0.5625 0.1406-0.25 0.3594-0.3906 0.2344-0.1562 0.5156-0.2344 0.2031-0.0625 0.625-0.1094 0.8594-0.1094 1.25-0.25 0.0156-0.1406 0.0156-0.1719 0-0.4375-0.2031-0.6094-0.2656-0.2344-0.7969-0.2344-0.5 0-0.7344 0.1719-0.2344 0.1719-0.3594 0.6094l-0.6875-0.0937q0.0937-0.4375 0.3125-0.7031 0.2188-0.2812 0.625-0.4219 0.4062-0.1562 0.9375-0.1562t0.8594 0.125q0.3438 0.125 0.5 0.3281 0.1562 0.1875 0.2188 0.4688 0.0312 0.1875 0.0312 0.6562v0.9375q0 0.9688 0.0469 1.234 0.0469 0.2656 0.1719 0.5h-0.7344q-0.1094-0.2188-0.1406-0.5156zm-0.0625-1.562q-0.375 0.1562-1.141 0.2656-0.4375 0.0625-0.625 0.1406-0.1719 0.0781-0.2656 0.2344-0.0937 0.1406-0.0937 0.3281 0 0.2812 0.2031 0.4688 0.2188 0.1875 0.625 0.1875t0.7188-0.1719q0.3281-0.1875 0.4688-0.5 0.1094-0.2344 0.1094-0.7031zm1.809 3.672v-5.75h0.6406v0.5469q0.2188-0.3125 0.5-0.4688 0.2969-0.1719 0.7031-0.1719 0.5312 0 0.9375 0.2812 0.4062 0.2656 0.6094 0.7656 0.2031 0.5 0.2031 1.094 0 0.6406-0.2344 1.156-0.2188 0.5-0.6562 0.7812-0.4375 0.2656-0.9062 0.2656-0.3594 0-0.6406-0.1406-0.2812-0.1562-0.4531-0.3906v2.031zm0.6406-3.641q0 0.7969 0.3125 1.188 0.3281 0.375 0.7969 0.375t0.7969-0.3906q0.3281-0.4062 0.3281-1.234 0-0.7969-0.3281-1.188-0.3125-0.3906-0.7656-0.3906-0.4531 0-0.7969 0.4219-0.3438 0.4062-0.3438 1.219z" fill="#595959"/>
    <g fill-rule="evenodd">
      <path d="m60.63 349.5h40.66v22.94h-40.66z" fill="#fff2cc"/>
      <path d="m60.63 349.5h40.66v22.94h-40.66z" stroke="#595959" stroke-linecap="butt" stroke-linejoin="round"/>
      <path d="m63.69 352.4h17.26v17.18h-17.26z" fill="#f4cccc"/>
      <path d="m63.69 352.4h17.26v17.18h-17.26z" stroke="#595959" stroke-linecap="butt" stroke-linejoin="round"/>
    </g>
    <path d="m72.66 358.7v4.906h-0.6875v-4.906h-1.734v-0.6094h4.156l-0.0625 0.6094z" fill="#434343"/>
    <path d="m80.95 352.4h17.26v17.18h-17.26z" fill="#f4cccc" fill-rule="evenodd"/>
    <path d="m80.95 352.4h17.26v17.18h-17.26z" fill-rule="evenodd" stroke="#595959" stroke-linecap="butt" stroke-linejoin="round"/>
    <path d="m89.92 358.7v4.906h-0.6875v-4.906h-1.734v-0.6094h4.156l-0.0625 0.6094z" fill="#434343"/>
    <g fill-rule="evenodd">
      <path d="m106 328.1-33.67 21.48" fill="#000" fill-opacity="0"/>
      <path d="m106 328.1-31.58 20.15" stroke="#595959" stroke-linecap="butt" stroke-linejoin="round"/>
      <path d="m74.4 348.2 0.1766-0.799-1.029 1.343 1.651-0.3672z" fill="#595959" stroke="#595959" stroke-linecap="butt"/>
      <path d="m140.5 328.1-23.97 21.61" fill="#000" fill-opacity="0"/>
      <path d="m140.5 328.1-22.13 19.95" stroke="#595959" stroke-linecap="butt" stroke-linejoin="round"/>
      <path d="m118.4 348 0.0424-0.8172-0.7934 1.494 1.568-0.6346z" fill="#595959" stroke="#595959" stroke-linecap="butt"/>
      <path d="m175 328.1 19.31 21.32" fill="#000" fill-opacity="0"/>
      <path d="m175 328.1 17.65 19.49" stroke="#595959" stroke-linecap="butt" stroke-linejoin="round"/>
      <path d="m192.7 347.6-0.8173-0.0405 1.496 0.7901-0.6381-1.567z" fill="#595959" stroke="#595959" stroke-linecap="butt"/>
    </g>
  </g>
</svg>
